<svg xmlns="http://www.w3.org/2000/svg" xml:space="preserve" width="1.70666in" height="1.70666in" version="1.1" style="shape-rendering:geometricPrecision; text-rendering:geometricPrecision; image-rendering:optimizeQuality; fill-rule:evenodd; clip-rule:evenodd" viewBox="0 0 1707 1707" xmlns:xlink="http://www.w3.org/1999/xlink">
 <defs>
  <style type="text/css">
   
    .fil0 {fill:black}
   
  </style>
 </defs>
 <g id="Layer_x0020_1">
  <metadata id="CorelCorpID_0Corel-Layer"></metadata>
  <g id="_321766344">
   <g>
    <path class="fil0" d="M513 1502l-405 0c-60,0 -108,-49 -108,-108l0 -1081c0,-60 48,-108 108,-108l405 0c60,0 108,48 108,108l0 64c0,13 -11,23 -23,23l-75 0c-36,0 -66,30 -66,67l0 664c0,36 30,66 66,66l75 0c12,0 23,11 23,23l0 174c0,59 -48,108 -108,108zm-405 -1250c-34,0 -61,27 -61,61l0 1081c0,33 27,61 61,61l405 0c34,0 61,-28 61,-61l0 -150 -51 0c-62,0 -113,-51 -113,-113l0 -664c0,-63 51,-113 113,-113l51 0 0 -41c0,-34 -27,-61 -61,-61l-405 0 0 0z"></path>
   </g>
   <g>
    <path class="fil0" d="M1593 1244l-1070 0c-62,0 -113,-51 -113,-113l0 -664c0,-63 51,-113 113,-113l1070 0c63,0 114,50 114,113l0 664c0,62 -51,113 -114,113zm-1070 -844c-36,0 -66,30 -66,67l0 664c0,36 30,66 66,66l1070 0c37,0 67,-30 67,-66l0 -664c0,-37 -30,-67 -67,-67l-1070 0 0 0z"></path>
   </g>
   <g>
    <g>
     <path class="fil0" d="M675 1088c-6,0 -12,-3 -17,-7 -9,-9 -9,-24 0,-33l688 -688c9,-9 24,-9 33,0 9,9 9,24 0,33l-688 688c-4,4 -10,7 -16,7z"></path>
    </g>
    <g>
     <path class="fil0" d="M911 1088c-6,0 -12,-3 -17,-7 -9,-9 -9,-24 0,-33l682 -682c9,-9 24,-9 33,0 9,9 9,24 0,33l-682 682c-4,4 -10,7 -16,7z"></path>
    </g>
   </g>
   <g>
    <path class="fil0" d="M1593 1244l-1070 0c-62,0 -113,-51 -113,-113l0 -67c0,-13 11,-23 23,-23l1250 0c13,0 24,10 24,23l0 67c0,62 -51,113 -114,113zm-1136 -156l0 43c0,36 30,66 66,66l1070 0c37,0 67,-30 67,-66l0 -43 -1203 0z"></path>
   </g>
   <g>
    <path class="fil0" d="M1234 1377l-351 0c-13,0 -24,-11 -24,-24l0 -133c0,-12 11,-23 24,-23l351 0c13,0 23,11 23,23l0 133c0,13 -10,24 -23,24zm-328 -47l305 0 0 -86 -305 0 0 86z"></path>
   </g>
   <g>
    <path class="fil0" d="M1316 1502l-515 0c-13,0 -24,-11 -24,-24l0 -62c0,-48 39,-86 86,-86l391 0c47,0 85,38 85,86l0 62c0,13 -10,24 -23,24zm-492 -47l469 0 0 -39c0,-22 -18,-39 -39,-39l-391 0c-21,0 -39,17 -39,39l0 39 0 0z"></path>
   </g>
   <g>
    <path class="fil0" d="M433 650l-410 0c-12,0 -23,-10 -23,-23l0 -164c0,-13 11,-24 23,-24l411 0c6,0 12,3 16,8 5,4 7,10 7,17l0 3 0 160c0,13 -11,23 -24,23zm-386 -47l363 0 0 -117 -363 0 0 117z"></path>
   </g>
   <g>
    <path class="fil0" d="M433 814l-410 0c-12,0 -23,-10 -23,-23l0 -164c0,-13 11,-24 23,-24l410 0c13,0 24,11 24,24l0 164c0,13 -11,23 -24,23zm-386 -46l363 0 0 -118 -363 0 0 118z"></path>
   </g>
   <g>
    <path class="fil0" d="M310 1398c-52,0 -95,-43 -95,-96 0,-52 43,-95 95,-95 53,0 96,43 96,95 0,53 -43,96 -96,96zm0 -144c-26,0 -48,21 -48,48 0,27 22,49 48,49 27,0 49,-22 49,-49 0,-27 -22,-48 -49,-48z"></path>
   </g>
   <g>
    <g>
     <path class="fil0" d="M961 1166l-48 0c-13,0 -24,-11 -24,-24 0,-13 11,-23 24,-23l48 0c13,0 23,10 23,23 0,13 -10,24 -23,24z"></path>
    </g>
    <g>
     <path class="fil0" d="M1083 1166l-49 0c-13,0 -23,-11 -23,-24 0,-13 10,-23 23,-23l49 0c13,0 23,10 23,23 0,13 -10,24 -23,24z"></path>
    </g>
    <g>
     <path class="fil0" d="M1204 1166l-48 0c-13,0 -24,-11 -24,-24 0,-13 11,-23 24,-23l48 0c13,0 24,10 24,23 0,13 -11,24 -24,24z"></path>
    </g>
   </g>
  </g>
 </g>
</svg>