<svg width="80" height="80" viewBox="0 0 80 80" fill="none" xmlns="http://www.w3.org/2000/svg">
<path d="M61.25 42.5C60.9519 42.4996 60.6637 42.3929 60.4375 42.1987L52.0375 35H31.25C29.593 34.998 28.0045 34.3389 26.8327 33.1673C25.6611 31.9955 25.002 30.407 25 28.75V8.75C25.002 7.093 25.6611 5.50445 26.8327 4.33277C28.0045 3.1611 29.593 2.50199 31.25 2.5H66.25C67.907 2.50199 69.4955 3.1611 70.6672 4.33277C71.8389 5.50445 72.498 7.093 72.5 8.75V28.75C72.498 30.407 71.8389 31.9955 70.6672 33.1673C69.4955 34.3389 67.907 34.998 66.25 35H62.5V41.25C62.5 41.5815 62.3682 41.8995 62.1339 42.1339C61.8995 42.3682 61.5815 42.5 61.25 42.5ZM31.25 5C30.2555 5 29.3016 5.39509 28.5984 6.09835C27.8951 6.80161 27.5 7.75544 27.5 8.75V28.75C27.5 29.7445 27.8951 30.6984 28.5984 31.4016C29.3016 32.1049 30.2555 32.5 31.25 32.5H52.5C52.7983 32.4996 53.0866 32.6066 53.3125 32.8012L60 38.5325V33.75C60 33.4185 60.1318 33.1005 60.3661 32.8661C60.6005 32.6318 60.9185 32.5 61.25 32.5H66.25C67.2445 32.5 68.1984 32.1049 68.9016 31.4016C69.6049 30.6984 70 29.7445 70 28.75V8.75C70 7.75544 69.6049 6.80161 68.9016 6.09835C68.1984 5.39509 67.2445 5 66.25 5H31.25Z" fill="black"/>
<path d="M48.75 27.5C48.4643 27.4971 48.1884 27.3955 47.969 27.2123C47.7498 27.0291 47.6005 26.7756 47.5469 26.4949C47.4933 26.2143 47.5384 25.9236 47.6747 25.6725C47.8109 25.4213 48.0299 25.225 48.2945 25.117C48.559 25.0089 48.8528 24.9958 49.126 25.0796C49.3991 25.1636 49.6348 25.3395 49.793 25.5775C49.9511 25.8155 50.0221 26.1009 49.9938 26.3853C49.9654 26.6696 49.8396 26.9354 49.6375 27.1375C49.398 27.3659 49.081 27.4954 48.75 27.5Z" fill="black"/>
<path d="M48.75 23.75C48.4185 23.75 48.1005 23.6183 47.8661 23.3839C47.6318 23.1495 47.5 22.8315 47.5 22.5V19.7788C47.5034 19.2311 47.6911 18.7006 48.0328 18.2726C48.3745 17.8448 48.8504 17.5444 49.3837 17.42C49.9967 17.26 50.5261 16.8733 50.8649 16.338C51.2036 15.8026 51.3265 15.1588 51.2087 14.5363C51.1125 14.0416 50.8706 13.587 50.5144 13.2306C50.158 12.8744 49.7034 12.6325 49.2088 12.5363C48.8473 12.4688 48.4754 12.4819 48.1196 12.5746C47.7638 12.6673 47.4327 12.8374 47.1502 13.0726C46.8677 13.3079 46.6405 13.6026 46.4849 13.9358C46.3293 14.2689 46.2491 14.6323 46.25 15C46.25 15.3315 46.1182 15.6495 45.8839 15.8839C45.6495 16.1183 45.3315 16.25 45 16.25C44.6685 16.25 44.3505 16.1183 44.1161 15.8839C43.8818 15.6495 43.75 15.3315 43.75 15C43.7502 14.0655 44.0123 13.1498 44.5066 12.3566C45.0009 11.5635 45.7075 10.9248 46.5464 10.5129C47.3852 10.101 48.3228 9.9325 49.2525 10.0264C50.1823 10.1203 51.0671 10.4729 51.8066 11.0442C52.5463 11.6155 53.1109 12.3827 53.4365 13.2586C53.7622 14.1345 53.8359 15.0843 53.6492 15.9999C53.4625 16.9156 53.023 17.7606 52.3804 18.4391C51.7378 19.1176 50.9179 19.6025 50.0138 19.8388L50 22.5C50 22.8315 49.8682 23.1495 49.6339 23.3839C49.3995 23.6183 49.0815 23.75 48.75 23.75Z" fill="black"/>
<path d="M18.75 77.5C18.4185 77.5 18.1005 77.3682 17.8661 77.1339C17.6318 76.8995 17.5 76.5815 17.5 76.25V70H13.75C12.093 69.998 10.5044 69.3389 9.33277 68.1672C8.1611 66.9955 7.50199 65.407 7.5 63.75V43.75C7.50199 42.093 8.1611 40.5045 9.33277 39.3327C10.5044 38.1611 12.093 37.502 13.75 37.5H48.75C50.407 37.502 51.9955 38.1611 53.1672 39.3327C54.3389 40.5045 54.998 42.093 55 43.75V63.75C54.998 65.407 54.3389 66.9955 53.1672 68.1672C51.9955 69.3389 50.407 69.998 48.75 70H27.9625L19.5638 77.1987C19.3371 77.3931 19.0485 77.5 18.75 77.5ZM13.75 40C12.7555 40 11.8016 40.3951 11.0984 41.0984C10.3951 41.8016 10 42.7555 10 43.75V63.75C10 64.7445 10.3951 65.6984 11.0984 66.4016C11.8016 67.1049 12.7555 67.5 13.75 67.5H18.75C19.0815 67.5 19.3995 67.6318 19.6339 67.8661C19.8682 68.1005 20 68.4185 20 68.75V73.5325L26.6863 67.8013C26.9129 67.6069 27.2015 67.5 27.5 67.5H48.75C49.7445 67.5 50.6984 67.1049 51.4016 66.4016C52.1049 65.6984 52.5 64.7445 52.5 63.75V43.75C52.5 42.7555 52.1049 41.8016 51.4016 41.0984C50.6984 40.3951 49.7445 40 48.75 40H13.75Z" fill="black"/>
<path d="M18.75 47.5H16.25C15.9185 47.5 15.6005 47.3682 15.3661 47.1339C15.1318 46.8995 15 46.5815 15 46.25C15 45.9185 15.1318 45.6005 15.3661 45.3661C15.6005 45.1318 15.9185 45 16.25 45H18.75C19.0815 45 19.3995 45.1318 19.6339 45.3661C19.8682 45.6005 20 45.9185 20 46.25C20 46.5815 19.8682 46.8995 19.6339 47.1339C19.3995 47.3682 19.0815 47.5 18.75 47.5Z" fill="black"/>
<path d="M46.25 47.5H23.75C23.4185 47.5 23.1005 47.3682 22.8661 47.1339C22.6318 46.8995 22.5 46.5815 22.5 46.25C22.5 45.9185 22.6318 45.6005 22.8661 45.3661C23.1005 45.1318 23.4185 45 23.75 45H46.25C46.5815 45 46.8995 45.1318 47.1339 45.3661C47.3682 45.6005 47.5 45.9185 47.5 46.25C47.5 46.5815 47.3682 46.8995 47.1339 47.1339C46.8995 47.3682 46.5815 47.5 46.25 47.5Z" fill="black"/>
<path d="M18.75 52.5H16.25C15.9185 52.5 15.6005 52.3682 15.3661 52.1339C15.1318 51.8995 15 51.5815 15 51.25C15 50.9185 15.1318 50.6005 15.3661 50.3661C15.6005 50.1318 15.9185 50 16.25 50H18.75C19.0815 50 19.3995 50.1318 19.6339 50.3661C19.8682 50.6005 20 50.9185 20 51.25C20 51.5815 19.8682 51.8995 19.6339 52.1339C19.3995 52.3682 19.0815 52.5 18.75 52.5Z" fill="black"/>
<path d="M46.25 52.5H23.75C23.4185 52.5 23.1005 52.3682 22.8661 52.1339C22.6318 51.8995 22.5 51.5815 22.5 51.25C22.5 50.9185 22.6318 50.6005 22.8661 50.3661C23.1005 50.1318 23.4185 50 23.75 50H46.25C46.5815 50 46.8995 50.1318 47.1339 50.3661C47.3682 50.6005 47.5 50.9185 47.5 51.25C47.5 51.5815 47.3682 51.8995 47.1339 52.1339C46.8995 52.3682 46.5815 52.5 46.25 52.5Z" fill="black"/>
<path d="M18.75 57.5H16.25C15.9185 57.5 15.6005 57.3682 15.3661 57.1339C15.1318 56.8995 15 56.5815 15 56.25C15 55.9185 15.1318 55.6005 15.3661 55.3661C15.6005 55.1318 15.9185 55 16.25 55H18.75C19.0815 55 19.3995 55.1318 19.6339 55.3661C19.8682 55.6005 20 55.9185 20 56.25C20 56.5815 19.8682 56.8995 19.6339 57.1339C19.3995 57.3682 19.0815 57.5 18.75 57.5Z" fill="black"/>
<path d="M46.25 57.5H23.75C23.4185 57.5 23.1005 57.3682 22.8661 57.1339C22.6318 56.8995 22.5 56.5815 22.5 56.25C22.5 55.9185 22.6318 55.6005 22.8661 55.3661C23.1005 55.1318 23.4185 55 23.75 55H46.25C46.5815 55 46.8995 55.1318 47.1339 55.3661C47.3682 55.6005 47.5 55.9185 47.5 56.25C47.5 56.5815 47.3682 56.8995 47.1339 57.1339C46.8995 57.3682 46.5815 57.5 46.25 57.5Z" fill="black"/>
<path d="M18.75 62.5H16.25C15.9185 62.5 15.6005 62.3682 15.3661 62.1339C15.1318 61.8995 15 61.5815 15 61.25C15 60.9185 15.1318 60.6005 15.3661 60.3661C15.6005 60.1318 15.9185 60 16.25 60H18.75C19.0815 60 19.3995 60.1318 19.6339 60.3661C19.8682 60.6005 20 60.9185 20 61.25C20 61.5815 19.8682 61.8995 19.6339 62.1339C19.3995 62.3682 19.0815 62.5 18.75 62.5Z" fill="black"/>
<path d="M46.25 62.5H23.75C23.4185 62.5 23.1005 62.3682 22.8661 62.1339C22.6318 61.8995 22.5 61.5815 22.5 61.25C22.5 60.9185 22.6318 60.6005 22.8661 60.3661C23.1005 60.1318 23.4185 60 23.75 60H46.25C46.5815 60 46.8995 60.1318 47.1339 60.3661C47.3682 60.6005 47.5 60.9185 47.5 61.25C47.5 61.5815 47.3682 61.8995 47.1339 62.1339C46.8995 62.3682 46.5815 62.5 46.25 62.5Z" fill="black"/>
</svg>
