<svg width="80" height="80" viewBox="0 0 80 80" fill="none" xmlns="http://www.w3.org/2000/svg">
<path fill-rule="evenodd" clip-rule="evenodd" d="M76.2045 58.6315C75.5483 58.6315 75.0328 58.116 75.0328 57.4599V17.8114C75.0328 15.843 73.4862 14.2964 71.6116 14.2964H8.85823C6.88987 14.2964 5.34329 15.843 5.34329 17.8114V57.5067C5.34329 58.1629 4.82777 58.6784 4.17165 58.6784C3.51552 58.6784 3 58.1629 3 57.5067V17.8114C3 14.6245 5.62449 12 8.81137 12H71.5179C74.7047 12 77.2355 14.6245 77.2355 17.8114V57.5067C77.3292 58.1629 76.8137 58.6315 76.2045 58.6315Z" fill="black"/>
<path fill-rule="evenodd" clip-rule="evenodd" d="M74.6875 67.4688H5.15625C2.34375 67.4688 0 65.125 0 62.3125V58.0938C0 57.4688 0.625 57 1.25 57H78.9062C79.5312 57 80 57.4688 80 58.0938V62.3125C79.8438 65.125 77.5 67.4688 74.6875 67.4688ZM2.34375 59.3438V62.3125C2.34375 63.875 3.59375 65.125 5.15625 65.125H74.6875C76.25 65.125 77.6562 63.875 77.6562 62.3125V59.3438H2.34375Z" fill="black"/>
<path fill-rule="evenodd" clip-rule="evenodd" d="M49.375 63.5625H30.4688C29.375 63.5625 28.4375 62.7812 28.4375 61.5312V58.0938C28.4375 57.4688 28.9062 57 29.6875 57H50.3125C51.0938 57 51.5625 57.4688 51.5625 58.0938V61.5312C51.5625 62.7812 50.625 63.5625 49.375 63.5625ZM30.625 61.375H49.2188V59.3438H30.625V61.375Z" fill="black"/>
<path fill-rule="evenodd" clip-rule="evenodd" d="M39.6797 39.832C36.6719 39.832 34.2793 37.4395 34.2793 34.5C34.2793 31.5605 36.6719 29.168 39.6797 29.168C42.6191 29.168 45.0117 31.5605 45.0117 34.5C45.0117 37.4395 42.6191 39.832 39.6797 39.832ZM39.6797 30.125C37.2188 30.125 35.2363 32.1074 35.2363 34.5C35.2363 36.8926 37.2188 38.875 39.6797 38.875C42.0723 38.875 44.0547 36.8926 44.0547 34.5C44.0547 32.1074 42.0723 30.125 39.6797 30.125Z" fill="black"/>
<path fill-rule="evenodd" clip-rule="evenodd" d="M42.209 47.0098H37.082C36.8086 47.0098 36.6035 46.8047 36.6035 46.5312V42.6348C35.7148 42.293 34.8945 41.8145 34.1426 41.1992L30.7246 43.1816C30.5195 43.3184 30.2461 43.25 30.1094 42.9766L27.5117 38.5332C27.375 38.3281 27.4434 37.9863 27.7168 37.8496L31.0664 35.9355C30.998 35.457 30.9297 34.9785 30.9297 34.5C30.9297 34.0215 30.998 33.543 31.0664 33.0645L27.7168 31.1504C27.5801 31.082 27.5117 30.9453 27.4434 30.8086C27.4434 30.7402 27.4434 30.6035 27.5117 30.4668L30.1094 26.0234C30.2461 25.75 30.5195 25.6816 30.7246 25.8184L34.1426 27.8008C34.8945 27.1855 35.7148 26.707 36.6035 26.3652V22.4688C36.6035 22.1953 36.8086 21.9902 37.082 21.9902H42.209C42.4824 21.9902 42.6875 22.1953 42.6875 22.4688V26.3652C43.5762 26.707 44.4648 27.1855 45.2168 27.8008L48.5664 25.8184C48.7715 25.6816 49.0449 25.75 49.1816 26.0234L51.7793 30.4668C51.8477 30.6035 51.8477 30.7402 51.8477 30.8086C51.7793 30.9453 51.7109 31.082 51.6426 31.1504L48.2246 33.0645C48.293 33.543 48.3613 34.0215 48.3613 34.5C48.3613 34.9785 48.293 35.457 48.2246 35.9355L51.6426 37.8496C51.7109 37.918 51.7793 38.0547 51.8477 38.1914C51.8477 38.2598 51.8477 38.3965 51.7793 38.5332L49.1816 42.9766C49.1133 43.1133 49.0449 43.1816 48.9082 43.25C48.7715 43.25 48.6348 43.25 48.5664 43.1816L45.2168 41.1992C44.4648 41.8145 43.5762 42.293 42.6875 42.6348V46.5312C42.6875 46.8047 42.4824 47.0098 42.209 47.0098ZM37.5605 46.0527H41.7305V42.293C41.7305 42.0879 41.8672 41.9512 42.0723 41.8828C43.0977 41.541 43.9863 40.9941 44.8066 40.3105C44.9434 40.1738 45.2168 40.1055 45.3535 40.2422L48.6348 42.0879L50.7539 38.4648L47.4727 36.6191C47.2676 36.4824 47.1992 36.2773 47.2676 36.0723C47.3359 35.5938 47.4043 35.0469 47.4043 34.5C47.4043 33.9531 47.3359 33.4062 47.2676 32.9277C47.1992 32.7227 47.2676 32.5176 47.4727 32.3809L50.7539 30.5352L48.6348 26.9121L45.3535 28.7578C45.2168 28.8945 44.9434 28.8262 44.8066 28.6895C43.9863 28.0059 43.0977 27.459 42.0723 27.1172C41.8672 27.0488 41.7305 26.9121 41.7305 26.707V22.9473H37.5605V26.707C37.5605 26.9121 37.4238 27.0488 37.2188 27.1172C36.1934 27.459 35.3047 28.0059 34.4844 28.6895C34.3477 28.8262 34.1426 28.8945 33.9375 28.7578L30.6562 26.9121L28.6055 30.5352L31.8184 32.3809C32.0234 32.5176 32.0918 32.7227 32.0234 32.9277C31.9551 33.4062 31.8867 33.9531 31.8867 34.5C31.8867 35.0469 31.9551 35.5938 32.0234 36.0723C32.0918 36.2773 32.0234 36.4824 31.8184 36.6191L28.6055 38.4648L30.6562 42.0879L33.9375 40.2422C34.1426 40.1055 34.3477 40.1738 34.4844 40.3105C35.3047 40.9941 36.1934 41.541 37.2188 41.8828C37.4238 41.9512 37.5605 42.0879 37.5605 42.293V46.0527Z" fill="black"/>
<path fill-rule="evenodd" clip-rule="evenodd" d="M39.6797 52C36.0566 52 32.6387 50.9062 29.6992 48.9238C26.8965 46.9414 24.709 44.207 23.4101 40.9941C23.2734 40.7207 23.4101 40.4473 23.6836 40.3789C23.8887 40.2422 24.1621 40.3789 24.2988 40.6523C26.8281 46.9414 32.8437 51.043 39.6797 51.043C46.4473 51.043 52.4629 46.9414 54.9922 40.6523C55.1289 40.3789 55.4023 40.2422 55.6074 40.3789C55.8808 40.4473 56.0176 40.7207 55.8808 40.9941C54.582 44.207 52.3945 46.9414 49.5918 48.9238C46.6523 50.9062 43.2344 52 39.6797 52ZM55.4707 28.6895C55.2656 28.6895 55.0605 28.5527 54.9922 28.3477C52.4629 22.0586 46.4473 17.957 39.6797 17.957C32.8437 17.957 26.8281 22.0586 24.2988 28.3477C24.1621 28.6211 23.8887 28.7578 23.6836 28.6211C23.4101 28.5527 23.2734 28.2793 23.4101 28.0059C24.709 24.793 26.8965 22.0586 29.6992 20.0762C32.6387 18.0938 36.0566 17 39.6797 17C43.2344 17 46.6523 18.0938 49.5918 20.0762C52.3945 22.0586 54.582 24.793 55.8808 28.0059C56.0176 28.2793 55.8808 28.5527 55.6074 28.6211C55.5391 28.6895 55.5391 28.6895 55.4707 28.6895Z" fill="black"/>
<path fill-rule="evenodd" clip-rule="evenodd" d="M23.4785 45.0273C23.2051 44.959 23 44.7539 23 44.4804L23.3418 40.789C23.4102 40.584 23.4785 40.4472 23.6152 40.3789C23.8203 40.3105 23.957 40.3105 24.0938 40.4472L27.1699 42.5664C27.375 42.7031 27.4434 43.0449 27.3066 43.25C27.1016 43.4551 26.8281 43.5234 26.623 43.3867L24.2305 41.6777L23.957 44.5488C23.957 44.8222 23.752 45.0273 23.4785 45.0273Z" fill="black"/>
<path fill-rule="evenodd" clip-rule="evenodd" d="M55.4707 28.6895C55.334 28.6895 55.2656 28.6211 55.1973 28.5527L52.1211 26.502C51.8477 26.3652 51.8477 26.0234 51.9844 25.8184C52.1211 25.6133 52.3945 25.5449 52.5996 25.6816L55.0606 27.3223L55.2656 24.4512C55.2656 24.1777 55.4707 23.9727 55.7441 23.9727C56.0176 24.041 56.2227 24.2461 56.2227 24.5195L55.9492 28.2109C55.9492 28.416 55.8125 28.5527 55.6758 28.6211C55.6074 28.6211 55.5391 28.6895 55.4707 28.6895Z" fill="black"/>
</svg>
