<svg width="80" height="80" viewBox="0 0 80 80" fill="none" xmlns="http://www.w3.org/2000/svg">
<g clip-path="url(#clip0_20_195)">
<path fill-rule="evenodd" clip-rule="evenodd" d="M17.0176 48.1867C16.5001 48.1867 16.0801 47.7662 16.0801 47.2492V41.185C16.0801 40.6675 16.5001 40.2475 17.0176 40.2475H38.3692C39.6035 40.2475 39.6035 42.1225 38.3692 42.1225H17.9551V47.2492C17.9551 47.7667 17.5356 48.1867 17.0176 48.1867ZM40.001 40.4903C39.4835 40.4903 39.0634 40.0703 39.0634 39.5528V32.7517C39.0634 31.5174 40.9385 31.5174 40.9385 32.7517V39.5528C40.9385 40.0703 40.5194 40.4903 40.001 40.4903Z" fill="black"/>
<path fill-rule="evenodd" clip-rule="evenodd" d="M53.397 29.9045C52.8795 29.9045 52.4595 29.4845 52.4595 28.967V13.2333C52.4595 13.0847 52.3343 12.96 52.1862 12.96H27.8158C27.6672 12.96 27.5425 13.0852 27.5425 13.2333V28.967C27.5425 30.2012 25.6675 30.2012 25.6675 28.967V13.2333C25.6675 12.0492 26.6312 11.085 27.8158 11.085H52.1862C53.3702 11.085 54.3354 12.0488 54.3354 13.2333V28.967C54.3354 29.4845 53.9145 29.9045 53.397 29.9045Z" fill="black"/>
<path fill-rule="evenodd" clip-rule="evenodd" d="M53.6613 33.6887H26.3406C24.4885 33.6887 22.981 32.1817 22.981 30.3292C22.981 29.417 22.7518 28.0295 23.9185 28.0295H56.0838C57.2505 28.0295 57.0213 29.4165 57.0213 30.3292C57.0213 32.1817 55.5138 33.6887 53.6613 33.6887ZM24.8555 29.905C24.8555 30.8753 25.157 31.8137 26.3401 31.8137H53.6613C54.8444 31.8137 55.1449 30.8743 55.1449 29.905H24.8555Z" fill="black"/>
<path fill-rule="evenodd" clip-rule="evenodd" d="M30.4169 65.1312C29.8994 65.1312 29.4794 64.7107 29.4794 64.1937V48.46C29.4794 48.3114 29.3542 48.1867 29.2061 48.1867H4.83567C4.68707 48.1867 4.56239 48.3119 4.56239 48.46V64.1927C4.56239 65.427 2.68738 65.4265 2.68738 64.1927V48.46C2.68738 47.2755 3.65113 46.3108 4.83567 46.3108H29.2061C30.3901 46.3108 31.3544 47.275 31.3544 48.46V64.1927C31.3544 64.7102 30.9344 65.1312 30.4169 65.1312Z" fill="black"/>
<path fill-rule="evenodd" clip-rule="evenodd" d="M30.6819 68.915H3.35978C1.50774 68.915 0.000234499 67.4079 0.000234499 65.5549C0.000234499 64.6428 -0.228985 63.2552 0.937738 63.2552H33.103C34.2702 63.2552 34.0405 64.6432 34.0405 65.5549C34.0415 67.4079 32.534 68.915 30.6819 68.915ZM1.87524 65.1312C1.87524 66.102 2.17712 67.0395 3.35978 67.0395H30.681C31.8641 67.0395 32.1655 66.102 32.1655 65.1312H1.87524Z" fill="black"/>
<path fill-rule="evenodd" clip-rule="evenodd" d="M76.3756 65.1312C75.8581 65.1312 75.4381 64.7107 75.4381 64.1937V48.46C75.4381 48.3114 75.3139 48.1872 75.1653 48.1872H50.7944C50.6458 48.1872 50.5216 48.3114 50.5216 48.46V64.1927C50.5216 65.4269 48.6466 65.4265 48.6466 64.1927V48.46C48.6466 47.2755 49.6104 46.3117 50.7949 46.3117H75.1662C76.3503 46.3117 77.3145 47.2755 77.3145 48.46V64.1927C77.3131 64.7102 76.8931 65.1312 76.3756 65.1312Z" fill="black"/>
<path fill-rule="evenodd" clip-rule="evenodd" d="M76.6405 68.915H49.3184C47.4663 68.915 45.9588 67.4079 45.9588 65.5554C45.9588 64.6432 45.7291 63.2552 46.8963 63.2552L79.0621 63.2557C80.2293 63.2557 79.9996 64.6437 79.9996 65.5559C79.9996 67.4079 78.4925 68.915 76.64 68.915H76.6405ZM47.8348 65.1312C47.8348 66.1006 48.1348 67.0395 49.3184 67.0395H76.6405C77.8241 67.0395 78.1241 66.1006 78.1241 65.1312H47.8348Z" fill="black"/>
<path fill-rule="evenodd" clip-rule="evenodd" d="M62.9759 48.1867C62.4584 48.1867 62.0384 47.7663 62.0384 47.2492V42.1225H41.6336C40.3994 42.1225 40.3999 40.2475 41.6336 40.2475H62.9759C63.4934 40.2475 63.9134 40.6675 63.9134 41.185V47.2492C63.9134 47.7667 63.4939 48.1867 62.9759 48.1867Z" fill="black"/>
<path fill-rule="evenodd" clip-rule="evenodd" d="M40.0009 43.7542C36.6189 43.7542 36.6189 38.6148 40.0009 38.6148C43.3835 38.6148 43.3839 43.7542 40.0009 43.7542ZM40.0009 40.4898C39.0869 40.4898 39.0869 41.8778 40.0009 41.8778C40.915 41.8778 40.9155 40.4898 40.0009 40.4898Z" fill="black"/>
</g>
<defs>
<clipPath id="clip0_20_195">
<rect width="80" height="80" fill="white"/>
</clipPath>
</defs>
</svg>
