<svg width="80" height="80" viewBox="0 0 80 80" fill="none" xmlns="http://www.w3.org/2000/svg">
<path fill-rule="evenodd" clip-rule="evenodd" d="M56.25 55.4688H23.5938C22.9688 55.4688 22.3438 54.8438 22.3438 54.2188V49.375C22.3438 48.75 22.9688 48.125 23.5938 48.125C24.2188 48.125 24.6875 48.75 24.6875 49.375V53.125H55.3125V49.375C55.3125 48.75 55.7812 48.125 56.4062 48.125C57.0312 48.125 57.6562 48.75 57.6562 49.375V54.2188C57.5 54.8438 56.875 55.4688 56.25 55.4688Z" fill="black"/>
<path fill-rule="evenodd" clip-rule="evenodd" d="M40 50.9375C39.5312 50.9375 39.2188 50.625 38.9062 50.3125L31.875 38.125C31.5625 37.8125 31.5625 37.3438 31.875 36.875C32.0312 36.5625 32.3438 36.25 32.8125 36.25H35.1562V25.3125C35.1562 24.6875 35.7812 24.0625 36.4062 24.0625H43.4375C44.2188 24.0625 44.6875 24.6875 44.6875 25.3125V36.4062H47.1875C47.5 36.4062 47.9688 36.5625 48.125 37.0312C48.2812 37.3438 48.2812 37.8125 48.125 38.125L40.9375 50.3125C40.7812 50.625 40.3125 50.9375 40 50.9375ZM34.8438 38.5938L40 47.5L45.1562 38.5938H43.4375C42.8125 38.5938 42.3438 38.125 42.3438 37.5V26.4062H37.5V37.5C37.5 38.125 36.875 38.5938 36.25 38.5938H34.8438Z" fill="black"/>
<path fill-rule="evenodd" clip-rule="evenodd" d="M72.8125 62.5H7.03125C6.40625 62.5 5.78125 61.875 5.78125 61.25V36.5625C5.78125 35.9375 6.40625 35.4688 7.03125 35.4688C7.65625 35.4688 8.125 35.9375 8.125 36.5625V60.1562H71.7188V20C71.7188 19.6875 71.4062 19.375 71.0938 19.375H25.7812C25 19.375 24.5312 18.75 24.5312 18.125C24.5312 17.5 25 17.0312 25.7812 17.0312H71.0938C72.6562 17.0312 74.0625 18.2812 74.0625 20V61.25C74.0625 62.0312 73.4375 62.5 72.8125 62.5Z" fill="black"/>
<path fill-rule="evenodd" clip-rule="evenodd" d="M74.6875 70.625H5.15625C2.34375 70.625 0 68.2812 0 65.4688V61.25C0 60.625 0.625 60.1562 1.25 60.1562H78.9062C79.5312 60.1562 80 60.625 80 61.25V65.4688C79.8438 68.2812 77.5 70.625 74.6875 70.625ZM2.34375 62.5V65.4688C2.34375 67.0312 3.59375 68.2812 5.15625 68.2812H74.6875C76.25 68.2812 77.6562 67.0312 77.6562 65.4688V62.5H2.34375Z" fill="black"/>
<path fill-rule="evenodd" clip-rule="evenodd" d="M49.375 66.7188H30.4688C29.375 66.7188 28.4375 65.9375 28.4375 64.6875V61.25C28.4375 60.625 28.9062 60.1562 29.6875 60.1562H50.3125C51.0938 60.1562 51.5625 60.625 51.5625 61.25V64.6875C51.5625 65.9375 50.625 66.7188 49.375 66.7188ZM30.625 64.5312H49.2188V62.5H30.625V64.5312Z" fill="black"/>
<path fill-rule="evenodd" clip-rule="evenodd" d="M17.3438 40.3125H12.6562C12.1875 40.3125 11.7188 39.8438 11.5625 39.375L11.0938 35.3125C10.9375 35.3125 10.9375 35.3125 10.7812 35.3125L7.65625 37.6562C7.1875 37.9688 6.5625 37.9688 6.09375 37.5L2.65625 34.2188C2.34375 33.9062 2.34375 33.125 2.65625 32.8125L5 29.5312C5 29.375 5 29.375 5 29.2188L0.9375 28.5938C0.3125 28.5938 0 28.125 0 27.5V22.8125C0 22.1875 0.3125 21.7188 0.9375 21.7188L5 21.0938V20.9375L2.65625 17.6562C2.34375 17.1875 2.34375 16.5625 2.8125 16.0938L6.09375 12.8125C6.5625 12.5 7.1875 12.3438 7.65625 12.6562L10.7812 15.1562C10.9375 15 10.9375 15 11.0938 15L11.7188 10.9375C11.7188 10.4688 12.3438 10 12.8125 10H17.5C18.125 10 18.4375 10.4688 18.5938 10.9375L19.2188 15C19.2188 15 19.2188 15.1562 19.375 15.1562L22.6562 12.6562C23.125 12.3438 23.75 12.3438 24.0625 12.8125L27.3438 16.0938C27.8125 16.5625 27.8125 17.1875 27.5 17.6562L25.1562 20.9375C25.1562 20.9375 25.1562 21.0938 25.3125 21.0938L29.2188 21.7188C29.8438 21.7188 30.1562 22.3438 30.1562 22.8125V27.5C30.1562 28.125 29.8438 28.5938 29.2188 28.5938L25.3125 29.2188C25.1562 29.375 25.1562 29.375 25.1562 29.5312L27.5 32.8125C27.8125 33.125 27.8125 33.9062 27.3438 34.2188L24.0625 37.5C23.75 37.9688 23.125 37.9688 22.6562 37.6562L19.375 35.3125H19.2188L18.5938 39.375C18.4375 39.8438 17.9688 40.3125 17.3438 40.3125ZM13.75 37.9688H16.4062L17.0312 34.375C17.0312 33.9062 17.3438 33.5938 17.8125 33.4375C18.125 33.2812 18.5938 33.125 19.0625 32.8125C19.375 32.6562 19.8438 32.8125 20.1562 32.9688L23.125 35.1562L25 33.2812L22.8125 30.3125C22.6562 29.8438 22.5 29.375 22.8125 29.0625C22.9688 28.75 23.125 28.4375 23.2812 28.125L23.4375 27.8125C23.4375 27.5 23.9062 27.1875 24.2188 27.0312L27.9688 26.5625V23.9062L24.2188 23.2812C23.9062 23.2812 23.4375 22.9688 23.4375 22.6562C23.2812 22.1875 23.125 21.7188 22.8125 21.4062C22.6562 20.9375 22.6562 20.4688 22.9688 20.1562L25.1562 17.1875L23.125 15.1562L20.3125 17.5C20 17.6562 19.5312 17.8125 19.0625 17.5C18.75 17.3438 18.2812 17.1875 17.8125 17.0312C17.5 16.875 17.1875 16.5625 17.0312 16.0938L16.5625 12.3438L13.75 12.5L13.125 16.0938C13.125 16.5625 12.6562 16.875 12.3438 17.0312C11.875 17.1875 11.5625 17.3438 11.0938 17.5C10.7812 17.8125 10.3125 17.6562 10 17.5L6.875 15.1562L5 17.1875L7.34375 20.1562C7.5 20.4688 7.65625 20.9375 7.34375 21.4062C7.1875 21.7188 6.875 22.1875 6.875 22.6562C6.71875 22.9688 6.25 23.2812 5.9375 23.2812L2.34375 23.9062V26.5625L5.9375 27.0312C6.25 27.1875 6.5625 27.5 6.875 27.8125V28.125C7.03125 28.4375 7.1875 28.75 7.34375 29.0625C7.65625 29.5312 7.65625 30 7.34375 30.3125L5 33.2812L7.03125 35.3125L10 33.125C10.3125 32.8125 10.7812 32.8125 11.0938 32.9688C11.5625 33.125 12.0312 33.2812 12.3438 33.4375C12.8125 33.5938 13.125 33.9062 13.125 34.375L13.75 37.9688Z" fill="black"/>
<path fill-rule="evenodd" clip-rule="evenodd" d="M15 31.25C11.7188 31.25 8.90625 28.5938 8.90625 25.1562C8.90625 21.7188 11.7188 19.0625 15 19.0625C18.4375 19.0625 21.0938 21.7188 21.0938 25.1562C21.0938 28.5938 18.4375 31.25 15 31.25ZM15 21.4062C12.9688 21.4062 11.25 23.125 11.25 25.1562C11.25 27.3438 12.9688 29.0625 15 29.0625C17.1875 29.0625 18.9062 27.3438 18.9062 25.1562C18.9062 23.125 17.1875 21.4062 15 21.4062Z" fill="black"/>
</svg>
