<svg width="80" height="80" viewBox="0 0 80 80" fill="none" xmlns="http://www.w3.org/2000/svg">
<path fill-rule="evenodd" clip-rule="evenodd" d="M72.0752 67H7.92433C7.41384 67 7 66.5889 7 66.0839V23.2727C7 22.0192 8.02837 21 9.29302 21H28.2642C29.4812 21 29.4812 22.8322 28.2642 22.8322H9.29302C9.05257 22.8322 8.84866 23.0339 8.84866 23.2727V65.1682H71.1509V23.2727C71.1509 23.0344 70.9479 22.8322 70.7074 22.8322H51.7354C50.5183 22.8322 50.5188 21 51.7354 21H70.707C71.9716 21 73 22.0192 73 23.2727V66.0839C72.9995 66.5898 72.5852 67 72.0752 67Z" fill="black"/>
<path fill-rule="evenodd" clip-rule="evenodd" d="M39.9978 56.5748C36.7502 56.5748 35.1677 52.4707 37.4988 50.1541V48.0892C35.0051 47.684 32.6501 46.6765 30.6058 45.1388L29.1911 46.6C29.254 49.9498 25.3239 51.6854 23.0285 49.3146C20.7096 46.92 22.4707 42.8551 25.6568 42.9491L27.0715 41.4879C25.5827 39.3756 24.6063 36.9442 24.2149 34.3691H22.2152C19.9755 36.7757 16 35.1442 16 31.7881C16 28.4354 19.9722 26.7981 22.2156 29.2067H24.2158C24.6077 26.631 25.5841 24.1987 27.0719 22.0869L25.6572 20.6257C20.8553 20.7332 20.778 13.168 25.5818 13.168C27.6077 13.168 29.2305 14.8867 29.1911 16.9738L30.6058 18.435C32.6505 16.8964 35.0055 15.8889 37.4993 15.4846V13.4192C35.1691 11.106 36.7488 7 39.9982 7C43.2495 7 44.8268 11.108 42.4985 13.4192V15.4846C44.9914 15.8893 47.3464 16.8978 49.3911 18.435L50.8062 16.9738C50.7106 12.008 58.026 11.9387 58.026 16.8959C58.026 19.0019 56.3591 20.6509 54.3402 20.6243L52.9255 22.0854C54.4142 24.1972 55.3897 26.6296 55.783 29.2052H57.7822C60.0214 26.798 63.9979 28.4306 63.9979 31.7867C63.9979 35.1427 60.0219 36.7743 57.7822 34.3676H55.783C55.3906 36.9433 54.4142 39.3751 52.9255 41.4865L54.3402 42.9476C59.1233 42.8343 59.2199 50.4053 54.4152 50.4053C52.3803 50.4053 50.7659 48.6794 50.8062 46.5985L49.3906 45.1364C47.3454 46.675 44.9904 47.682 42.4985 48.0877V50.1526C44.8282 52.4668 43.2467 56.5748 39.9978 56.5748ZM30.5252 42.8866C31.5419 42.8866 33.2051 45.7087 38.532 46.2766C39.0096 46.3279 39.3724 46.7428 39.3724 47.2395C39.3724 48.7665 39.6415 50.8992 38.9834 51.3896C37.6268 52.401 38.3131 54.6387 39.9973 54.6387C41.6839 54.6387 42.3654 52.3976 41.0121 51.3896C40.3526 50.8982 40.6226 48.7699 40.6226 47.2395C40.6226 45.3092 43.9011 47.272 48.8797 43.102C49.2523 42.7903 49.7919 42.8183 50.1331 43.1693C51.1761 44.2441 52.8303 45.562 52.7005 46.3889C52.4244 48.1425 54.5028 49.1214 55.6414 47.9454C56.8377 46.7099 55.7745 44.6276 54.1334 44.9074C53.3342 45.0435 52.062 43.3354 51.0172 42.2562C49.6953 40.8905 53.3684 39.8631 54.0261 33.3015C54.0758 32.8082 54.4775 32.433 54.9584 32.433C56.4373 32.433 58.5017 32.1546 58.9761 32.8348C59.9535 34.2359 62.1219 33.5272 62.1219 31.7876C62.1219 30.051 59.9577 29.3364 58.9761 30.7399C58.5003 31.4197 56.4373 31.1418 54.9584 31.1418C53.0886 31.1418 54.9884 27.7484 50.952 22.6136C50.6492 22.2287 50.6773 21.67 51.0172 21.319C52.0667 20.235 53.3323 18.5323 54.1344 18.6674C55.79 18.9462 56.8311 16.8581 55.6414 15.6294C54.5037 14.4548 52.4262 15.4294 52.7005 17.1859C52.8298 18.0128 51.1747 19.3331 50.1331 20.4064C48.8084 21.7717 47.8161 17.977 41.4631 17.2992C40.9854 17.2478 40.6217 16.832 40.6217 16.3362C40.6217 14.8097 40.3526 12.6775 41.0107 12.1866C42.3664 11.1762 41.6801 8.93706 39.9963 8.93706C38.3149 8.93706 37.6245 11.1733 38.9824 12.1866C39.6406 12.678 39.3715 14.8087 39.3715 16.3362C39.3715 18.2675 36.0841 16.3067 31.1144 20.4737C30.7422 20.7855 30.2008 20.7574 29.861 20.4064C28.8143 19.3248 27.1629 18.0142 27.2936 17.1868C27.6893 14.6829 23.8436 14.3769 23.8436 16.8983C23.8436 18.0109 24.8102 18.8455 25.8588 18.6688C26.6604 18.5337 27.9279 20.2379 28.9769 21.3205C30.2997 22.6853 26.6261 23.7131 25.9689 30.2752C25.9193 30.7685 25.5166 31.1432 25.0366 31.1432C23.5582 31.1432 21.4924 31.4211 21.018 30.7409C20.0397 29.3398 17.8713 30.0491 17.8713 31.7891C17.8713 33.5257 20.0364 34.2388 21.018 32.8363C21.4938 32.1565 23.5567 32.4344 25.0352 32.4344C26.9041 32.4344 25.0066 35.8283 29.0411 40.9626C29.344 41.348 29.3158 41.9062 28.976 42.2572C27.9279 43.3398 26.6608 45.0425 25.8588 44.9089C24.2093 44.6339 23.1588 46.7162 24.3508 47.9464C25.4889 49.1209 27.5679 48.1434 27.2927 46.3899C27.1624 45.5625 28.8152 44.2485 29.8596 43.1703C30.0429 42.9815 30.2829 42.8861 30.5238 42.8861L30.5252 42.8866Z" fill="black"/>
<path fill-rule="evenodd" clip-rule="evenodd" d="M41.2193 26.5216C37.459 26.5216 37.458 20.6199 41.2193 20.6199C44.9805 20.6199 44.9796 26.5216 41.2193 26.5216ZM41.2193 22.5565C39.9251 22.5565 39.9255 24.587 41.2193 24.587C42.5121 24.587 42.513 22.5565 41.2193 22.5565Z" fill="black"/>
<path fill-rule="evenodd" clip-rule="evenodd" d="M37.1482 44.3521C33.387 44.3521 33.3879 38.4504 37.1482 38.4504C40.9086 38.4504 40.9095 44.3521 37.1482 44.3521ZM37.1482 40.386C35.8545 40.386 35.8535 42.4165 37.1482 42.4165C38.4429 42.4165 38.4415 40.386 37.1482 40.386Z" fill="black"/>
<path fill-rule="evenodd" clip-rule="evenodd" d="M38.4148 34.3909C35.0979 34.3909 35.0979 29.1849 38.4148 29.1849C41.7317 29.1849 41.7317 34.3909 38.4148 34.3909ZM38.4148 31.121C37.5649 31.121 37.564 32.4557 38.4148 32.4557C39.2656 32.4557 39.2656 31.121 38.4148 31.121Z" fill="black"/>
<path fill-rule="evenodd" clip-rule="evenodd" d="M49.159 32.3023C45.3977 32.3023 45.3986 26.4006 49.159 26.4006C52.9193 26.4006 52.9202 32.3023 49.159 32.3023ZM49.159 28.3367C47.8662 28.3367 47.8652 30.3672 49.159 30.3672C50.4523 30.3672 50.4523 28.3367 49.159 28.3367Z" fill="black"/>
<path fill-rule="evenodd" clip-rule="evenodd" d="M47.6233 40.1222C43.8625 40.1222 43.8625 34.2195 47.6233 34.2195C51.3841 34.2195 51.3837 40.1222 47.6233 40.1222ZM47.6233 36.1556C46.33 36.1556 46.33 38.1865 47.6233 38.1865C48.9166 38.1865 48.9166 36.1556 47.6233 36.1556Z" fill="black"/>
<path fill-rule="evenodd" clip-rule="evenodd" d="M30.837 29.9232C27.0766 29.9232 27.0757 24.0215 30.837 24.0215C34.5973 24.0215 34.5963 29.9232 30.837 29.9232ZM30.837 25.9571C29.5427 25.9571 29.5432 27.9876 30.837 27.9876C32.1293 27.9876 32.1312 25.9571 30.837 25.9571Z" fill="black"/>
<path fill-rule="evenodd" clip-rule="evenodd" d="M31.4548 38.5598C28.1379 38.5598 28.1374 33.3538 31.4548 33.3538C34.7721 33.3538 34.7716 38.5598 31.4548 38.5598ZM31.4548 35.2899C30.6049 35.2899 30.6035 36.6247 31.4548 36.6247C32.3055 36.6247 32.3046 35.2899 31.4548 35.2899Z" fill="black"/>
<path fill-rule="evenodd" clip-rule="evenodd" d="M74.6875 75.4688H5.15625C2.34375 75.4688 0 73.125 0 70.3125V66.0938C0 65.4688 0.625 65 1.25 65H78.9062C79.5312 65 80 65.4688 80 66.0938V70.3125C79.8438 73.125 77.5 75.4688 74.6875 75.4688ZM2.34375 67.3438V70.3125C2.34375 71.875 3.59375 73.125 5.15625 73.125H74.6875C76.25 73.125 77.6562 71.875 77.6562 70.3125V67.3438H2.34375Z" fill="black"/>
<path fill-rule="evenodd" clip-rule="evenodd" d="M49.375 71.5625H30.4688C29.375 71.5625 28.4375 70.7812 28.4375 69.5312V66.0938C28.4375 65.4688 28.9062 65 29.6875 65H50.3125C51.0938 65 51.5625 65.4688 51.5625 66.0938V69.5312C51.5625 70.7812 50.625 71.5625 49.375 71.5625ZM30.625 69.375H49.2188V67.3438H30.625V69.375Z" fill="black"/>
</svg>
