<svg width="80" height="80" viewBox="0 0 80 80" fill="none" xmlns="http://www.w3.org/2000/svg">
<path fill-rule="evenodd" clip-rule="evenodd" d="M76.2045 59.6315C75.5483 59.6315 75.0328 59.116 75.0328 58.4599V18.8114C75.0328 16.843 73.4862 15.2964 71.6116 15.2964H8.85825C6.88988 15.2964 5.34331 16.843 5.34331 18.8114V58.5067C5.34331 59.1629 4.82778 59.6784 4.17166 59.6784C3.51554 59.6784 3.00002 59.1629 3.00002 58.5067V18.8114C3.00002 15.6245 5.6245 13 8.81138 13H71.5179C74.7048 13 77.2355 15.6245 77.2355 18.8114V58.5067C77.3292 59.1629 76.8137 59.6315 76.2045 59.6315Z" fill="black"/>
<path fill-rule="evenodd" clip-rule="evenodd" d="M34.2595 43.3222C30.8383 43.3222 27.6046 41.9162 25.1676 39.526C22.7774 37.1359 21.4183 33.8553 21.4183 30.4341C21.4183 26.966 22.7774 23.7323 25.1676 21.3421C30.1822 16.3275 38.3837 16.3275 43.3984 21.3421C45.8354 23.7323 47.1945 26.966 47.1945 30.4341C47.1945 33.8553 45.8354 37.1359 43.3984 39.526C40.9613 41.9162 37.7276 43.3222 34.2595 43.3222ZM34.2595 19.8424C31.5413 19.8424 28.8231 20.8734 26.8079 22.9355C24.7926 24.9039 23.6678 27.5753 23.6678 30.4341C23.6678 33.2929 24.7926 35.9642 26.8079 37.8857C28.8231 39.8541 31.4944 41.0258 34.2595 41.0258C37.1183 41.0258 39.7897 39.901 41.7581 37.8857C43.7733 35.8705 44.8981 33.246 44.8981 30.4341C44.8981 27.6221 43.8202 24.9039 41.7581 22.8887C39.7428 20.8266 37.0246 19.8424 34.2595 19.8424Z" fill="black"/>
<path fill-rule="evenodd" clip-rule="evenodd" d="M54.5056 55.1324C54.1775 55.1324 53.8963 54.9918 53.7089 54.8043L46.4447 47.4464C45.7885 46.884 45.4136 45.9467 45.4136 45.0094C45.4136 44.0721 45.7885 43.1816 46.4447 42.5255C47.8038 41.1664 50.0065 41.1664 51.3656 42.5255L58.6766 49.7897C59.0984 50.2584 59.0984 50.9613 58.6766 51.43L55.3492 54.8043C55.068 54.9918 54.8336 55.1324 54.5056 55.1324ZM48.9285 43.744C48.6005 43.744 48.2724 43.8846 47.9912 44.1658C47.8038 44.3533 47.6632 44.6813 47.6632 45.0094C47.6632 45.3374 47.8038 45.6655 47.9912 45.853L54.5056 52.4142L56.2396 50.6333L49.7721 44.1658C49.5378 43.8846 49.2097 43.744 48.9285 43.744Z" fill="black"/>
<path fill-rule="evenodd" clip-rule="evenodd" d="M47.1945 44.4938C46.9602 44.4938 46.6321 44.3532 46.4446 44.1658L41.8049 39.526C41.3831 39.0574 41.3831 38.3544 41.8049 37.8857C42.2736 37.4639 42.9766 37.4639 43.4452 37.8857L48.0381 42.5255C48.5067 42.9941 48.5067 43.6971 48.0381 44.1658C47.8038 44.3532 47.4757 44.4938 47.1945 44.4938Z" fill="black"/>
<path fill-rule="evenodd" clip-rule="evenodd" d="M39.2742 36.6204C38.9461 36.6204 38.7118 36.4798 38.5243 36.2923C38.0557 35.8237 38.0557 35.1207 38.5243 34.652C39.6022 33.5741 40.2584 32.0744 40.2584 30.481C40.2584 28.8875 39.6022 27.3878 38.5243 26.2162C38.0557 25.7475 38.0557 25.0445 38.5243 24.5759C38.9461 24.1072 39.696 24.1072 40.1178 24.5759C41.7112 26.1224 42.6017 28.2314 42.6017 30.481C42.6017 32.6837 41.7581 34.7457 40.1178 36.2923C39.8834 36.4798 39.6022 36.6204 39.2742 36.6204ZM29.2918 36.6204C29.0106 36.6204 28.6825 36.4798 28.495 36.2923C25.3082 33.1054 25.3082 27.8096 28.495 24.6227C28.9637 24.2009 29.6667 24.2009 30.1353 24.6227C30.5571 25.0914 30.5571 25.7944 30.1353 26.263C27.792 28.6063 27.792 32.4493 30.1353 34.7457C30.5571 35.1675 30.5571 35.8705 30.1353 36.3392C29.8541 36.4798 29.5261 36.6204 29.2918 36.6204Z" fill="black"/>
<path fill-rule="evenodd" clip-rule="evenodd" d="M74.6875 68.4688H5.15625C2.34375 68.4688 0 66.125 0 63.3125V59.0938C0 58.4688 0.625 58 1.25 58H78.9062C79.5312 58 80 58.4688 80 59.0938V63.3125C79.8438 66.125 77.5 68.4688 74.6875 68.4688ZM2.34375 60.3438V63.3125C2.34375 64.875 3.59375 66.125 5.15625 66.125H74.6875C76.25 66.125 77.6562 64.875 77.6562 63.3125V60.3438H2.34375Z" fill="black"/>
<path fill-rule="evenodd" clip-rule="evenodd" d="M49.375 64.5625H30.4688C29.375 64.5625 28.4375 63.7812 28.4375 62.5312V59.0938C28.4375 58.4688 28.9062 58 29.6875 58H50.3125C51.0938 58 51.5625 58.4688 51.5625 59.0938V62.5312C51.5625 63.7812 50.625 64.5625 49.375 64.5625ZM30.625 62.375H49.2188V60.3438H30.625V62.375Z" fill="black"/>
</svg>
