<?xml version="1.0" encoding="UTF-8" standalone="no"?> <svg width="64" height="64" viewBox="0 0 64 64" fill="none" xmlns="http://www.w3.org/2000/svg">
<path d="M22.6701 48.3599C22.4056 48.3591 22.1461 48.2883 21.9178 48.1549C21.6895 48.0214 21.5005 47.8299 21.3701 47.5999L14.1801 34.8399C14.0104 34.4959 13.979 34.0999 14.0923 33.7334C14.2056 33.3669 14.4551 33.0578 14.7893 32.8695C15.1235 32.6813 15.5172 32.6282 15.8893 32.7213C16.2615 32.8144 16.5838 33.0465 16.7901 33.3699L22.9401 44.2699L47.3801 16.1599C47.6453 15.8589 48.0192 15.6756 48.4196 15.6502C48.82 15.6249 49.2141 15.7597 49.5151 16.0249C49.8161 16.2901 49.9994 16.6641 50.0247 17.0644C50.0501 17.4648 49.9153 17.8589 49.6501 18.1599L23.8001 47.8399C23.6603 48.0029 23.487 48.1337 23.2919 48.2235C23.0969 48.3132 22.8848 48.3598 22.6701 48.3599Z" fill="url(#paint0_linear_121:1816)"/>
<defs>
<linearGradient id="paint0_linear_121:1816" x1="13.9701" y1="31.9999" x2="50.0201" y2="31.9999" gradientUnits="userSpaceOnUse">
<stop stop-color="#19DD33"/>
<stop offset="0.43" stop-color="#0FA922"/>
<stop offset="0.8" stop-color="#088215"/>
<stop offset="1" stop-color="#057310"/>
</linearGradient>
</defs>
</svg>
