<?xml version="1.0" encoding="utf-8"?><svg viewBox="0 0 384 384" xmlns="http://www.w3.org/2000/svg" xmlns:xlink="http://www.w3.org/1999/xlink"><style>:root>svg{display:none}:root>svg:target{display:block}</style><svg viewBox="0 0 64 42.67" id="arrow" xmlns="http://www.w3.org/2000/svg"><g data-name="Layer 2"><path d="M63.22 19.57L44.5.78a2.67 2.67 0 00-3.78 3.77l14.07 14.12H2.67a2.67 2.67 0 100 5.33H55L40.73 38.11a2.67 2.67 0 103.76 3.78l18.72-18.54a2.67 2.67 0 000-3.78z" data-name="Layer 1"/></g></svg><svg viewBox="0 0 50 50" id="arrow-next" xmlns="http://www.w3.org/2000/svg"><path d="M13.854 48.707L37.561 25 13.854 1.293l-1.415 1.414L34.732 25 12.439 47.293z"/></svg><svg viewBox="0 0 50 50" id="arrow-prev" xmlns="http://www.w3.org/2000/svg"><path d="M37.561 47.293L15.267 25 37.561 2.707l-1.415-1.414L12.439 25l23.707 23.707z"/></svg><svg viewBox="0 0 100 100" id="circle-100" xmlns="http://www.w3.org/2000/svg"><circle cx="50" cy="50" r="40"/><text x="50" y="50" text-anchor="middle" dominant-baseline="middle" font-size="40" font-family="Lato, sans-serif">5</text><circle cx="50" cy="50" r="40" transform="rotate(-90 50 50)"><animate attributeName="stroke-dasharray" values="0, 251.327; 251.327, 2000.531" dur="2s"/></circle></svg><svg viewBox="0 0 100 100" id="circle-20" xmlns="http://www.w3.org/2000/svg"><circle cx="50" cy="50" r="40"/><text x="50" y="50" text-anchor="middle" dominant-baseline="middle" font-size="40" font-family="Lato, sans-serif">1</text><circle cx="50" cy="50" r="40" transform="rotate(-90 50 50)"><animate attributeName="stroke-dasharray" values="0, 251.327; 50.265, 201.062" dur="2s"/></circle></svg><svg viewBox="0 0 100 100" id="circle-40" xmlns="http://www.w3.org/2000/svg"><circle cx="50" cy="50" r="40"/><text x="50" y="50" text-anchor="middle" dominant-baseline="middle" font-size="40" font-family="Lato, sans-serif">2</text><circle class="fprogress-circle" cx="50" cy="50" r="40" transform="rotate(-90 50 50)"><animate attributeName="stroke-dasharray" values="0, 251.327; 100.531, 150.796" dur="2s"/></circle></svg><svg viewBox="0 0 100 100" id="circle-60" xmlns="http://www.w3.org/2000/svg"><circle cx="50" cy="50" r="40"/><text x="50" y="50" text-anchor="middle" dominant-baseline="middle" font-size="40" font-family="Lato, sans-serif">3</text><circle cx="50" cy="50" r="40" transform="rotate(-90 50 50)"><animate attributeName="stroke-dasharray" values="0, 251.327; 150.796, 100.531" dur="2s"/></circle></svg><svg viewBox="0 0 100 100" id="circle-80" xmlns="http://www.w3.org/2000/svg"><circle cx="50" cy="50" r="40"/><text x="50" y="50" text-anchor="middle" dominant-baseline="middle" font-size="40" font-family="Lato, sans-serif">4</text><circle cx="50" cy="50" r="40" transform="rotate(-90 50 50)"><animate attributeName="stroke-dasharray" values="0, 251.327; 200.796, 150.531" dur="2s"/></circle></svg><svg data-name="Слой 1" viewBox="0 0 100 100" id="cloud" xmlns="http://www.w3.org/2000/svg"><path d="M77.64 24.56a19.09 19.09 0 00-7.58 1.57A25.28 25.28 0 0044.71 3.5c-14 0-25.45 11.17-25.45 24.9a24.24 24.24 0 00.44 4.6 14.4 14.4 0 10-2.53 28.5h.5a1.5 1.5 0 100-3h-.5a11.38 11.38 0 110-22.75 11.91 11.91 0 014.08.73 1.5 1.5 0 001.95-1.85 21.43 21.43 0 01-.94-6.24c0-12.08 10.07-21.9 22.45-21.9s22.45 9.83 22.45 21.86v.18a1.5 1.5 0 002.27 1.29 16.11 16.11 0 018.22-2.26 15.46 15.46 0 11.55 30.91h-6.11a1.5 1.5 0 100 3h6.15a1.47 1.47 0 00.35 0 18.45 18.45 0 00-.95-36.89z"/><path d="M73.94 77.94l-9.44 9.44V43a1.5 1.5 0 00-3 0v44.38l-9.44-9.44a1.5 1.5 0 10-2.12 2.12l12 12a1.5 1.5 0 002.12 0l12-12a1.5 1.5 0 00-2.12-2.12zm-23.88-24l-12-12a1.5 1.5 0 00-2.12 0l-12 12a1.5 1.5 0 002.12 2.12l9.44-9.44V91a1.5 1.5 0 003 0V46.62l9.44 9.44a1.5 1.5 0 002.12-2.12zm7.53-29.42a1.5 1.5 0 002.81-1A16.61 16.61 0 0045 12.5a1.5 1.5 0 000 3 13.6 13.6 0 0112.59 9.02z"/></svg><svg viewBox="0 0 1707 1707" id="computer" xmlns="http://www.w3.org/2000/svg"><defs><style>.jfil0{fill:#000}</style></defs><g id="jLayer_x0020_1"><g id="j_321766344"><path class="jfil0" d="M513 1502H108c-60 0-108-49-108-108V313c0-60 48-108 108-108h405c60 0 108 48 108 108v64c0 13-11 23-23 23h-75c-36 0-66 30-66 67v664c0 36 30 66 66 66h75c12 0 23 11 23 23v174c0 59-48 108-108 108zM108 252c-34 0-61 27-61 61v1081c0 33 27 61 61 61h405c34 0 61-28 61-61v-150h-51c-62 0-113-51-113-113V467c0-63 51-113 113-113h51v-41c0-34-27-61-61-61H108z"/><path class="jfil0" d="M1593 1244H523c-62 0-113-51-113-113V467c0-63 51-113 113-113h1070c63 0 114 50 114 113v664c0 62-51 113-114 113zM523 400c-36 0-66 30-66 67v664c0 36 30 66 66 66h1070c37 0 67-30 67-66V467c0-37-30-67-67-67H523z"/><path class="jfil0" d="M675 1088c-6 0-12-3-17-7-9-9-9-24 0-33l688-688c9-9 24-9 33 0s9 24 0 33l-688 688c-4 4-10 7-16 7zm236 0c-6 0-12-3-17-7-9-9-9-24 0-33l682-682c9-9 24-9 33 0s9 24 0 33l-682 682c-4 4-10 7-16 7z"/><path class="jfil0" d="M1593 1244H523c-62 0-113-51-113-113v-67c0-13 11-23 23-23h1250c13 0 24 10 24 23v67c0 62-51 113-114 113zM457 1088v43c0 36 30 66 66 66h1070c37 0 67-30 67-66v-43H457z"/><path class="jfil0" d="M1234 1377H883c-13 0-24-11-24-24v-133c0-12 11-23 24-23h351c13 0 23 11 23 23v133c0 13-10 24-23 24zm-328-47h305v-86H906v86z"/><path class="jfil0" d="M1316 1502H801c-13 0-24-11-24-24v-62c0-48 39-86 86-86h391c47 0 85 38 85 86v62c0 13-10 24-23 24zm-492-47h469v-39c0-22-18-39-39-39H863c-21 0-39 17-39 39v39zM433 650H23c-12 0-23-10-23-23V463c0-13 11-24 23-24h411c6 0 12 3 16 8 5 4 7 10 7 17v163c0 13-11 23-24 23zM47 603h363V486H47v117z"/><path class="jfil0" d="M433 814H23c-12 0-23-10-23-23V627c0-13 11-24 23-24h410c13 0 24 11 24 24v164c0 13-11 23-24 23zM47 768h363V650H47v118zm263 630c-52 0-95-43-95-96 0-52 43-95 95-95 53 0 96 43 96 95 0 53-43 96-96 96zm0-144c-26 0-48 21-48 48s22 49 48 49c27 0 49-22 49-49s-22-48-49-48zm651-88h-48c-13 0-24-11-24-24s11-23 24-23h48c13 0 23 10 23 23s-10 24-23 24zm122 0h-49c-13 0-23-11-23-24s10-23 23-23h49c13 0 23 10 23 23s-10 24-23 24zm121 0h-48c-13 0-24-11-24-24s11-23 24-23h48c13 0 24 10 24 23s-11 24-24 24z"/></g></g></svg><svg viewBox="0 0 80 80" id="consultation" xmlns="http://www.w3.org/2000/svg"><path d="M61.25 42.5a1.25 1.25 0 01-.813-.301L52.038 35H31.25A6.258 6.258 0 0125 28.75v-20a6.258 6.258 0 016.25-6.25h35a6.258 6.258 0 016.25 6.25v20A6.258 6.258 0 0166.25 35H62.5v6.25a1.25 1.25 0 01-1.25 1.25zM31.25 5a3.75 3.75 0 00-3.75 3.75v20a3.75 3.75 0 003.75 3.75H52.5c.298 0 .587.107.813.301L60 38.532V33.75a1.25 1.25 0 011.25-1.25h5A3.75 3.75 0 0070 28.75v-20A3.75 3.75 0 0066.25 5h-35z"/><path d="M48.75 27.5a1.238 1.238 0 11.888-.363c-.24.229-.557.358-.888.363zm0-3.75a1.25 1.25 0 01-1.25-1.25v-2.721a2.438 2.438 0 011.884-2.359 2.5 2.5 0 001.825-2.884 2.53 2.53 0 00-2-2A2.5 2.5 0 0046.25 15a1.25 1.25 0 01-2.5 0 5 5 0 116.264 4.839L50 22.5a1.25 1.25 0 01-1.25 1.25zm-30 53.75a1.25 1.25 0 01-1.25-1.25V70h-3.75a6.257 6.257 0 01-6.25-6.25v-20a6.258 6.258 0 016.25-6.25h35A6.258 6.258 0 0155 43.75v20A6.257 6.257 0 0148.75 70H27.962l-8.398 7.199a1.25 1.25 0 01-.814.301zm-5-37.5A3.75 3.75 0 0010 43.75v20a3.75 3.75 0 003.75 3.75h5A1.25 1.25 0 0120 68.75v4.782l6.686-5.73a1.25 1.25 0 01.814-.302h21.25a3.75 3.75 0 003.75-3.75v-20A3.75 3.75 0 0048.75 40h-35z"/><path d="M18.75 47.5h-2.5a1.25 1.25 0 010-2.5h2.5a1.25 1.25 0 010 2.5zm27.5 0h-22.5a1.25 1.25 0 010-2.5h22.5a1.25 1.25 0 010 2.5zm-27.5 5h-2.5a1.25 1.25 0 010-2.5h2.5a1.25 1.25 0 010 2.5zm27.5 0h-22.5a1.25 1.25 0 010-2.5h22.5a1.25 1.25 0 010 2.5zm-27.5 5h-2.5a1.25 1.25 0 010-2.5h2.5a1.25 1.25 0 010 2.5zm27.5 0h-22.5a1.25 1.25 0 010-2.5h22.5a1.25 1.25 0 010 2.5zm-27.5 5h-2.5a1.25 1.25 0 010-2.5h2.5a1.25 1.25 0 010 2.5zm27.5 0h-22.5a1.25 1.25 0 010-2.5h22.5a1.25 1.25 0 010 2.5z"/></svg><svg viewBox="0 0 22.578 22.578" id="done" xmlns="http://www.w3.org/2000/svg"><path d="M5.96 3.338c-.744 0-1.354.61-1.354 1.353v15.563c0 .743.61 1.354 1.355 1.354h13.193a1.36 1.36 0 001.354-1.354V4.69a1.36 1.36 0 00-1.354-1.353h-6.599z"/><path d="M6.468 11.78c-.655 0-1.282.121-1.861.342v8.132c0 .743.61 1.353 1.353 1.353h3.11a5.272 5.272 0 002.657-4.565c0-2.893-2.366-5.262-5.26-5.262z"/><path d="M5.96 3.338v11.84a.338.338 0 00.04.16l2.538 4.738a.338.338 0 00.297.178h8.966c.744 0 1.354-.608 1.354-1.351V3.338h-6.598z"/><path d="M8.835 6.722a.338.338 0 00-.337.337.338.338 0 00.337.34h5.415a.338.338 0 00.337-.34.338.338 0 00-.337-.337zm6.769 0a.338.338 0 00-.34.337.338.338 0 00.34.34h1.69a.338.338 0 00.338-.34.338.338 0 00-.337-.337zm-7.784.677a.338.338 0 00-.337.337.338.338 0 00.337.338.338.338 0 00.34-.338.338.338 0 00-.34-.337zm1.015.677a.338.338 0 00-.337.337.338.338 0 00.337.34h1.693a.338.338 0 00.337-.34.338.338 0 00-.337-.337zm3.045 0a.338.338 0 00-.337.337.338.338 0 00.337.34h5.415a.338.338 0 00.337-.34.338.338 0 00-.337-.337zm-3.045 1.69a.338.338 0 00-.337.338.338.338 0 00.337.34h8.46a.338.338 0 00.337-.34.338.338 0 00-.337-.338zm-1.015.678a.338.338 0 00-.337.337.338.338 0 00.337.338.338.338 0 00.34-.338.338.338 0 00-.34-.337zm1.015.676a.338.338 0 00-.337.337.338.338 0 00.337.34h5.415a.338.338 0 00.337-.34.338.338 0 00-.337-.337zm6.769 0a.338.338 0 00-.34.337.338.338 0 00.34.34h1.69a.338.338 0 00.338-.34.338.338 0 00-.337-.337zM7.555 3.338c-.068.44-.036.892-.036 1.353 0 .909.75 1.654 1.656 1.654h6.766c.906 0 1.653-.747 1.653-1.654.003-.446.016-.934-.036-1.353h-5.001z"/><path d="M11.95.969c-1.461 0-1.18 1.692-2.175 1.692h-.6a1.023 1.023 0 00-1.016 1.016v1.014c0 .557.46 1.014 1.015 1.014h6.766a1.018 1.018 0 001.014-1.014V3.677a1.02 1.02 0 00-1.014-1.016h-.598c-.872 0-.8-1.673-2.187-1.69h-1.198a.37.37 0 00-.008 0z"/><path d="M12.555 2.324a1.018 1.018 0 00-1.013 1.013 1.02 1.02 0 001.015 1.017 1.023 1.023 0 001.016-1.017 1.02 1.02 0 00-1.016-1.013zM5.96 11.805v3.374a.338.338 0 00.04.16l2.538 4.737a.338.338 0 00.297.178h1.789a5.226 5.226 0 001.103-3.212c0-3.11-2.412-5.456-5.767-5.237z"/><path d="M6.468 12.641a4.405 4.405 0 00-4.399 4.4 4.403 4.403 0 004.4 4.4 4.403 4.403 0 004.397-4.4 4.405 4.405 0 00-4.399-4.4z"/><path d="M6.564 17.644l-1.758-1.756a.784.784 0 00-1.101 0l-.335.333a.785.785 0 000 1.1l2.253 2.264a1.341 1.341 0 001.88.013l4.548-4.45a.78.78 0 00.006-1.103l-.334-.335a.789.789 0 00-1.103-.007z"/></svg><svg viewBox="0 0 80 80" id="instal" xmlns="http://www.w3.org/2000/svg"><path fill-rule="evenodd" clip-rule="evenodd" d="M76.204 58.632a1.16 1.16 0 01-1.171-1.172V17.81c0-1.968-1.547-3.515-3.421-3.515H8.858a3.48 3.48 0 00-3.515 3.515v39.696a1.16 1.16 0 01-1.171 1.171A1.16 1.16 0 013 57.507V17.81C3 14.624 5.624 12 8.811 12h62.707c3.187 0 5.718 2.624 5.718 5.811v39.696c.093.656-.422 1.125-1.032 1.125z"/><path fill-rule="evenodd" clip-rule="evenodd" d="M74.688 67.469H5.156C2.344 67.469 0 65.125 0 62.313v-4.22C0 57.47.625 57 1.25 57h77.656c.625 0 1.094.469 1.094 1.094v4.218c-.156 2.813-2.5 5.157-5.313 5.157zM2.344 59.344v2.968a2.8 2.8 0 002.812 2.813h69.531c1.563 0 2.97-1.25 2.97-2.813v-2.968H2.343z"/><path fill-rule="evenodd" clip-rule="evenodd" d="M49.375 63.563H30.469c-1.094 0-2.032-.782-2.032-2.032v-3.437c0-.625.47-1.094 1.25-1.094h20.625c.782 0 1.25.469 1.25 1.094v3.437c0 1.25-.937 2.032-2.187 2.032zm-18.75-2.188h18.594v-2.031H30.625v2.031zm9.055-21.543c-3.008 0-5.4-2.392-5.4-5.332s2.392-5.332 5.4-5.332a5.339 5.339 0 015.332 5.332 5.339 5.339 0 01-5.332 5.332zm0-9.707c-2.461 0-4.444 1.982-4.444 4.375s1.983 4.375 4.444 4.375c2.392 0 4.375-1.982 4.375-4.375s-1.983-4.375-4.375-4.375z"/><path fill-rule="evenodd" clip-rule="evenodd" d="M42.209 47.01h-5.127a.467.467 0 01-.479-.479v-3.896a8.923 8.923 0 01-2.46-1.436l-3.418 1.983c-.206.136-.479.068-.616-.205l-2.597-4.444c-.137-.205-.069-.547.205-.683l3.35-1.915c-.069-.478-.137-.957-.137-1.435 0-.478.068-.957.136-1.435l-3.35-1.915c-.136-.068-.204-.205-.273-.341 0-.069 0-.206.069-.342l2.597-4.444c.137-.273.41-.341.616-.205l3.418 1.983a8.923 8.923 0 012.46-1.436V22.47c0-.274.206-.479.479-.479h5.127c.273 0 .478.205.478.479v3.896c.89.342 1.778.82 2.53 1.436l3.35-1.983c.205-.136.478-.068.615.205l2.597 4.444a.743.743 0 01.069.342c-.069.136-.137.273-.205.341l-3.418 1.915c.068.478.136.957.136 1.435 0 .478-.068.957-.136 1.435l3.418 1.915c.068.068.136.205.205.341 0 .069 0 .206-.069.342l-2.597 4.444a.534.534 0 01-.274.273c-.136 0-.273 0-.342-.068l-3.35-1.983c-.751.616-1.64 1.094-2.529 1.436v3.896a.467.467 0 01-.478.479zm-4.649-.957h4.17v-3.76c0-.205.137-.342.342-.41 1.026-.342 1.914-.889 2.735-1.573.136-.136.41-.205.546-.068l3.282 1.846 2.119-3.623-3.281-1.846c-.205-.137-.274-.342-.205-.547.068-.478.136-1.025.136-1.572 0-.547-.068-1.094-.136-1.572-.069-.205 0-.41.205-.547l3.28-1.846-2.118-3.623-3.282 1.846c-.136.137-.41.068-.546-.069-.82-.683-1.71-1.23-2.735-1.572-.205-.068-.342-.205-.342-.41v-3.76h-4.17v3.76c0 .205-.136.342-.341.41-1.026.342-1.914.889-2.735 1.572-.136.137-.341.206-.547.069l-3.28-1.846-2.052 3.623 3.213 1.846c.205.137.274.342.205.547a11.229 11.229 0 00-.136 1.572c0 .547.068 1.094.136 1.572.069.205 0 .41-.205.547l-3.213 1.846 2.051 3.623 3.282-1.846c.205-.136.41-.068.546.069.82.683 1.71 1.23 2.735 1.572.205.068.341.205.341.41v3.76z"/><path fill-rule="evenodd" clip-rule="evenodd" d="M39.68 52c-3.623 0-7.041-1.094-9.98-3.076a17.939 17.939 0 01-6.29-7.93c-.137-.273 0-.547.274-.615.205-.137.478 0 .615.273 2.53 6.29 8.545 10.391 15.38 10.391 6.768 0 12.784-4.102 15.313-10.39.137-.274.41-.41.615-.274.274.068.41.342.274.615a17.938 17.938 0 01-6.29 7.93C46.653 50.906 43.235 52 39.68 52zm15.79-23.31a.514.514 0 01-.478-.342c-2.53-6.29-8.545-10.391-15.312-10.391-6.836 0-12.852 4.102-15.381 10.39-.137.274-.41.41-.615.274-.274-.068-.41-.342-.274-.615a17.939 17.939 0 016.29-7.93C32.638 18.094 36.056 17 39.68 17c3.554 0 6.972 1.094 9.912 3.076a17.938 17.938 0 016.289 7.93c.137.273 0 .547-.274.615-.068.069-.068.069-.136.069z"/><path fill-rule="evenodd" clip-rule="evenodd" d="M23.479 45.027c-.274-.068-.479-.273-.479-.547l.342-3.691c.068-.205.137-.342.273-.41.205-.069.342-.069.479.068l3.076 2.12c.205.136.273.478.137.683-.205.205-.479.273-.684.137l-2.393-1.71-.273 2.872a.467.467 0 01-.479.478zM55.47 28.69c-.136 0-.204-.069-.273-.137l-3.076-2.051c-.273-.137-.273-.479-.137-.684a.445.445 0 01.616-.136l2.46 1.64.206-2.87c0-.274.205-.48.478-.48.274.069.479.274.479.547l-.274 3.692a.462.462 0 01-.273.41c-.069 0-.137.069-.205.069z"/></svg><svg viewBox="0 0 48 64" id="man" xmlns="http://www.w3.org/2000/svg"><defs><style>.ncls-1{fill:#35353d}</style></defs><g id="nLayer_2" data-name="Layer 2"><path class="ncls-1" d="M32 32H16A16 16 0 000 48v13.33a2.67 2.67 0 105.33 0V48A10.69 10.69 0 0116 37.33h16A10.69 10.69 0 0142.67 48v13.33a2.67 2.67 0 105.33 0V48a16 16 0 00-16-16zm-8-5.33a13.34 13.34 0 10-13.33-13.34A13.35 13.35 0 0024 26.67zm0-21.34a8 8 0 11-8 8 8 8 0 018-8z" id="nLayer_1-2" data-name="Layer 1"/></g></svg><svg viewBox="0 0 24 24" id="map" xmlns="http://www.w3.org/2000/svg"><path d="M12 1.25c-3.723 0-6.75 3.054-6.75 6.821 0 1.276.562 2.859 1.38 4.438 1.801 3.477 4.801 6.979 4.801 6.979a.75.75 0 001.138 0s3-3.502 4.801-6.979c.818-1.579 1.38-3.162 1.38-4.438 0-3.767-3.027-6.821-6.75-6.821zm0 1.5c2.9 0 5.25 2.387 5.25 5.321 0 1.466-.93 3.376-2.004 5.157-1.152 1.91-2.5 3.664-3.246 4.592-.746-.928-2.094-2.682-3.246-4.592C7.68 11.447 6.75 9.537 6.75 8.071 6.75 5.137 9.1 2.75 12 2.75z"/><path d="M12 5.25a2.751 2.751 0 000 5.5 2.751 2.751 0 000-5.5zm0 1.5a1.25 1.25 0 110 2.5 1.25 1.25 0 010-2.5zm4.784 10.627c.813.244 1.483.546 1.946.9.3.228.52.451.52.723 0 .16-.091.305-.219.45-.212.239-.527.454-.917.654-1.378.705-3.606 1.146-6.114 1.146s-4.736-.441-6.114-1.146c-.39-.2-.705-.415-.917-.654-.128-.145-.219-.29-.219-.45 0-.272.22-.495.52-.723.463-.354 1.133-.656 1.946-.9a.75.75 0 00-.432-1.437c-1.238.373-2.2.884-2.778 1.449-.508.495-.756 1.049-.756 1.611 0 .702.397 1.402 1.204 1.986C5.87 22.01 8.714 22.75 12 22.75c3.286 0 6.13-.74 7.546-1.764.807-.584 1.204-1.284 1.204-1.986 0-.562-.248-1.116-.756-1.611-.578-.565-1.54-1.076-2.778-1.449a.75.75 0 00-.432 1.437z"/></svg><svg viewBox="0 0 24 24" id="menu" xmlns="http://www.w3.org/2000/svg"><path d="M4 6h16v2H4zm4 5h12v2H8zm5 5h7v2h-7z"/></svg><svg viewBox="0 0 80 80" id="network" xmlns="http://www.w3.org/2000/svg"><g clip-path="url(#qa)" fill-rule="evenodd" clip-rule="evenodd"><path d="M17.018 48.187a.938.938 0 01-.938-.938v-6.064c0-.518.42-.938.938-.938h21.351c1.234 0 1.234 1.876 0 1.876H17.955v5.126c0 .518-.42.938-.937.938zM40 40.49a.938.938 0 01-.938-.937v-6.801c0-1.235 1.875-1.235 1.875 0v6.8a.937.937 0 01-.937.938zm13.397-10.586a.938.938 0 01-.938-.937V13.233a.277.277 0 00-.273-.273h-24.37a.277.277 0 00-.273.273v15.734c0 1.234-1.875 1.234-1.875 0V13.233a2.15 2.15 0 012.148-2.148h24.37c1.184 0 2.15.964 2.15 2.148v15.734a.94.94 0 01-.939.938z"/><path d="M53.661 33.689h-27.32a3.364 3.364 0 01-3.36-3.36c0-.912-.23-2.3.938-2.3h32.165c1.166 0 .937 1.387.937 2.3a3.364 3.364 0 01-3.36 3.36zm-28.806-3.784c0 .97.302 1.909 1.485 1.909h27.321c1.183 0 1.484-.94 1.484-1.909h-30.29zm5.562 35.226a.938.938 0 01-.938-.937V48.46a.277.277 0 00-.273-.273H4.836a.277.277 0 00-.274.273v15.733c0 1.234-1.875 1.234-1.875 0V48.46c0-1.184.964-2.15 2.149-2.15h24.37c1.184 0 2.148.965 2.148 2.15v15.733c0 .517-.42.938-.937.938z"/><path d="M30.682 68.915H3.36A3.364 3.364 0 010 65.555c0-.912-.229-2.3.938-2.3h32.165c1.167 0 .938 1.388.938 2.3a3.362 3.362 0 01-3.36 3.36zM1.875 65.131c0 .971.302 1.909 1.485 1.909h27.32c1.183 0 1.485-.938 1.485-1.909H1.876zm74.501 0a.938.938 0 01-.938-.937V48.46a.275.275 0 00-.273-.273h-24.37a.275.275 0 00-.273.273v15.733c0 1.234-1.875 1.234-1.875 0V48.46a2.15 2.15 0 012.148-2.148h24.371c1.184 0 2.148.964 2.148 2.148v15.733a.94.94 0 01-.938.938z"/><path d="M76.64 68.915H49.319a3.364 3.364 0 01-3.36-3.36c0-.912-.229-2.3.938-2.3h32.166c1.167 0 .938 1.389.938 2.3a3.363 3.363 0 01-3.36 3.36zm-28.805-3.784c0 .97.3 1.909 1.483 1.909h27.323c1.183 0 1.483-.94 1.483-1.909h-30.29zm15.141-16.944a.938.938 0 01-.938-.938v-5.127H41.634c-1.235 0-1.234-1.874 0-1.874h21.342c.517 0 .937.42.937.937v6.064c0 .518-.42.938-.937.938z"/><path d="M40 43.754c-3.381 0-3.381-5.14 0-5.14 3.383 0 3.384 5.14 0 5.14zm0-3.264c-.913 0-.913 1.388 0 1.388.915 0 .916-1.388 0-1.388z"/></g><defs><clipPath id="qa"><path d="M0 0h80v80H0z"/></clipPath></defs></svg><svg viewBox="0 0 64 64" id="ok" xmlns="http://www.w3.org/2000/svg"><path d="M22.67 48.36a1.5 1.5 0 01-1.3-.76l-7.19-12.76a1.5 1.5 0 012.61-1.47l6.15 10.9 24.44-28.11a1.513 1.513 0 012.27 2L23.8 47.84a1.49 1.49 0 01-1.13.52z"/><defs><linearGradient id="ra" x1="13.97" y1="32" x2="50.02" y2="32" gradientUnits="userSpaceOnUse"><stop stop-color="#19DD33"/><stop offset=".43" stop-color="#0FA922"/><stop offset=".8" stop-color="#088215"/><stop offset="1" stop-color="#057310"/></linearGradient></defs></svg><svg viewBox="0 0 384 384" id="phone" xmlns="http://www.w3.org/2000/svg"><path d="M353.188 252.052c-23.51 0-46.594-3.677-68.469-10.906-10.906-3.719-23.323-.833-30.438 6.417l-43.177 32.594c-50.073-26.729-80.917-57.563-107.281-107.26l31.635-42.052c8.219-8.208 11.167-20.198 7.635-31.448-7.26-21.99-10.948-45.063-10.948-68.583C132.146 13.823 118.323 0 101.333 0H30.812C13.823 0 0 13.823 0 30.812 0 225.563 158.438 384 353.188 384c16.99 0 30.813-13.823 30.813-30.813v-70.323c-.001-16.989-13.824-30.812-30.813-30.812zm9.479 101.136c0 5.229-4.25 9.479-9.479 9.479-182.99 0-331.854-148.865-331.854-331.854 0-5.229 4.25-9.479 9.479-9.479h70.521c5.229 0 9.479 4.25 9.479 9.479 0 25.802 4.052 51.125 11.979 75.115 1.104 3.542.208 7.208-3.375 10.938L82.75 165.427a10.674 10.674 0 00-1 11.26c29.927 58.823 66.292 95.188 125.531 125.542 3.604 1.885 8.021 1.49 11.292-.979l49.677-37.635a9.414 9.414 0 019.667-2.25c24.156 7.979 49.479 12.021 75.271 12.021 5.229 0 9.479 4.25 9.479 9.479v70.323z"/></svg><svg viewBox="0 0 64 64" id="phone2" xmlns="http://www.w3.org/2000/svg"><path d="M52.036 41.71a5.287 5.287 0 00-7.839.59 4.753 4.753 0 01-5.91.663 55.714 55.714 0 01-9.188-7.28 55.212 55.212 0 01-8.05-9.978 4.698 4.698 0 01.675-5.879 5.573 5.573 0 002.086-4.214 5.093 5.093 0 00-1.507-3.625L17.056 6.74a5.135 5.135 0 00-7.249 0L7.68 8.87A12.517 12.517 0 006.058 24.6a119.56 119.56 0 0015.087 18.417 120.216 120.216 0 0018.112 14.835 12.62 12.62 0 0015.899-1.517c1.519-1.54 3.79-3.335 3.624-5.753a5.093 5.093 0 00-1.506-3.625zm-.312-29.418A28.064 28.064 0 0031.75 4.017a1.054 1.054 0 000 2.107c14.052-.29 26.436 12.097 26.144 26.148a1.054 1.054 0 002.107 0 28.066 28.066 0 00-8.276-19.98z"/><path d="M30.693 22.38a1.054 1.054 0 001.054 1.054 8.88 8.88 0 018.836 8.837 1.054 1.054 0 002.108 0 10.945 10.945 0 00-10.944-10.944 1.054 1.054 0 00-1.054 1.053zm18.545 9.892a1.054 1.054 0 002.107 0c.218-10.536-9.064-19.818-19.6-19.6a1.054 1.054 0 000 2.107 17.575 17.575 0 0117.493 17.493z"/></svg><svg viewBox="0 0 80 80" id="search" xmlns="http://www.w3.org/2000/svg"><path fill-rule="evenodd" clip-rule="evenodd" d="M76.204 59.632a1.16 1.16 0 01-1.171-1.172V18.81c0-1.968-1.547-3.515-3.421-3.515H8.858a3.48 3.48 0 00-3.515 3.515v39.696a1.16 1.16 0 01-1.171 1.171A1.16 1.16 0 013 58.507V18.81C3 15.624 5.625 13 8.811 13h62.707c3.187 0 5.718 2.624 5.718 5.811v39.696c.093.656-.422 1.125-1.032 1.125z"/><path fill-rule="evenodd" clip-rule="evenodd" d="M34.26 43.322c-3.422 0-6.655-1.406-9.092-3.796a12.875 12.875 0 01-3.75-9.092c0-3.468 1.36-6.702 3.75-9.092 5.014-5.014 13.216-5.014 18.23 0 2.437 2.39 3.796 5.624 3.796 9.092 0 3.421-1.359 6.702-3.796 9.092-2.437 2.39-5.67 3.796-9.139 3.796zm0-23.48c-2.719 0-5.437 1.031-7.452 3.094-2.015 1.968-3.14 4.64-3.14 7.498 0 2.859 1.125 5.53 3.14 7.452 2.015 1.968 4.686 3.14 7.452 3.14 2.858 0 5.53-1.125 7.498-3.14 2.015-2.016 3.14-4.64 3.14-7.452 0-2.812-1.078-5.53-3.14-7.545-2.015-2.062-4.733-3.047-7.498-3.047zm20.246 35.29c-.328 0-.61-.14-.797-.328l-7.264-7.358c-.657-.562-1.031-1.5-1.031-2.437a3.51 3.51 0 011.03-2.483 3.48 3.48 0 014.922 0l7.31 7.264a1.221 1.221 0 010 1.64l-3.327 3.374c-.281.188-.515.328-.843.328zm-5.578-11.388c-.328 0-.656.14-.937.422a1.25 1.25 0 000 1.687l6.515 6.561 1.734-1.78-6.468-6.468a1.135 1.135 0 00-.843-.422z"/><path fill-rule="evenodd" clip-rule="evenodd" d="M47.194 44.494c-.234 0-.562-.14-.75-.328l-4.64-4.64a1.221 1.221 0 010-1.64 1.221 1.221 0 011.641 0l4.593 4.64a1.133 1.133 0 010 1.64c-.234.187-.562.328-.843.328zm-7.92-7.874c-.328 0-.562-.14-.75-.328a1.133 1.133 0 010-1.64 5.923 5.923 0 001.734-4.171c0-1.594-.656-3.093-1.734-4.265a1.133 1.133 0 010-1.64 1.079 1.079 0 011.594 0 8.182 8.182 0 012.484 5.905c0 2.203-.844 4.265-2.484 5.811-.235.188-.516.328-.844.328zm-9.982 0c-.281 0-.61-.14-.797-.328-3.187-3.187-3.187-8.482 0-11.67a1.221 1.221 0 011.64 0 1.221 1.221 0 010 1.641c-2.343 2.343-2.343 6.186 0 8.483.422.421.422 1.124 0 1.593-.28.14-.609.281-.843.281zm45.396 31.849H5.156C2.344 68.469 0 66.125 0 63.313v-4.22C0 58.47.625 58 1.25 58h77.656c.625 0 1.094.469 1.094 1.094v4.218c-.156 2.813-2.5 5.157-5.313 5.157zM2.344 60.344v2.968a2.8 2.8 0 002.812 2.813h69.531c1.563 0 2.97-1.25 2.97-2.813v-2.968H2.343z"/><path fill-rule="evenodd" clip-rule="evenodd" d="M49.375 64.563H30.469c-1.094 0-2.032-.782-2.032-2.032v-3.437c0-.625.47-1.094 1.25-1.094h20.625c.782 0 1.25.469 1.25 1.094v3.437c0 1.25-.937 2.032-2.187 2.032zm-18.75-2.188h18.594v-2.031H30.625v2.031z"/></svg><svg viewBox="0 0 80 80" id="setup" xmlns="http://www.w3.org/2000/svg"><path fill-rule="evenodd" clip-rule="evenodd" d="M56.25 55.469H23.594c-.625 0-1.25-.625-1.25-1.25v-4.844c0-.625.625-1.25 1.25-1.25s1.093.625 1.093 1.25v3.75h30.625v-3.75c0-.625.47-1.25 1.094-1.25.625 0 1.25.625 1.25 1.25v4.844c-.156.625-.781 1.25-1.406 1.25z"/><path fill-rule="evenodd" clip-rule="evenodd" d="M40 50.938c-.469 0-.781-.313-1.094-.626l-7.031-12.187c-.313-.313-.313-.781 0-1.25.156-.313.469-.625.938-.625h2.343V25.312c0-.625.625-1.25 1.25-1.25h7.032c.78 0 1.25.625 1.25 1.25v11.094h2.5c.312 0 .78.157.937.625.156.313.156.782 0 1.094l-7.188 12.188c-.156.312-.624.624-.937.624zm-5.156-12.344L40 47.5l5.156-8.906h-1.718a1.068 1.068 0 01-1.094-1.094V26.406H37.5V37.5c0 .625-.625 1.094-1.25 1.094h-1.406z"/><path fill-rule="evenodd" clip-rule="evenodd" d="M72.813 62.5H7.03c-.625 0-1.25-.625-1.25-1.25V36.562c0-.624.625-1.093 1.25-1.093s1.094.468 1.094 1.093v23.594h63.594V20c0-.313-.313-.625-.625-.625H25.78c-.781 0-1.25-.625-1.25-1.25s.469-1.094 1.25-1.094h45.313c1.562 0 2.969 1.25 2.969 2.969v41.25c0 .781-.626 1.25-1.25 1.25z"/><path fill-rule="evenodd" clip-rule="evenodd" d="M74.688 70.625H5.156C2.344 70.625 0 68.281 0 65.469V61.25c0-.625.625-1.094 1.25-1.094h77.656c.625 0 1.094.469 1.094 1.094v4.219c-.156 2.812-2.5 5.156-5.313 5.156zM2.344 62.5v2.969a2.8 2.8 0 002.812 2.812h69.531c1.563 0 2.97-1.25 2.97-2.812V62.5H2.343z"/><path fill-rule="evenodd" clip-rule="evenodd" d="M49.375 66.719H30.469c-1.094 0-2.032-.781-2.032-2.031V61.25c0-.625.47-1.094 1.25-1.094h20.625c.782 0 1.25.469 1.25 1.094v3.438c0 1.25-.937 2.03-2.187 2.03zm-18.75-2.188h18.594V62.5H30.625v2.031zM17.344 40.313h-4.688c-.469 0-.937-.47-1.094-.938l-.468-4.063h-.313l-3.125 2.344c-.468.313-1.093.313-1.562-.156l-3.438-3.281c-.312-.313-.312-1.094 0-1.407L5 29.532v-.313l-4.063-.625C.313 28.594 0 28.125 0 27.5v-4.688c0-.625.313-1.093.938-1.093L5 21.094v-.157l-2.344-3.28c-.312-.47-.312-1.095.156-1.563l3.282-3.282c.468-.312 1.093-.468 1.562-.156l3.125 2.5c.156-.156.156-.156.313-.156l.625-4.063c0-.468.625-.937 1.094-.937H17.5c.625 0 .938.469 1.094.938L19.219 15s0 .156.156.156l3.281-2.5c.469-.312 1.094-.312 1.407.156l3.28 3.282c.47.468.47 1.093.157 1.562l-2.344 3.282s0 .156.157.156l3.906.625c.625 0 .937.625.937 1.093V27.5c0 .625-.312 1.094-.937 1.094l-3.907.625c-.156.156-.156.156-.156.312l2.344 3.282c.313.312.313 1.093-.156 1.406L24.062 37.5c-.312.469-.937.469-1.406.156l-3.281-2.343h-.156l-.625 4.062c-.157.469-.625.938-1.25.938zm-3.594-2.344h2.656l.625-3.594c0-.469.313-.781.782-.938.312-.156.78-.312 1.25-.624.312-.157.78 0 1.093.156l2.969 2.187L25 33.281l-2.188-2.968c-.156-.47-.312-.938 0-1.25l.47-.938.155-.313c0-.312.47-.625.782-.78l3.75-.47v-2.656l-3.75-.625c-.313 0-.782-.312-.782-.625-.156-.468-.312-.937-.625-1.25-.156-.468-.156-.937.157-1.25l2.187-2.968-2.031-2.032-2.813 2.344c-.312.156-.78.313-1.25 0-.312-.156-.78-.313-1.25-.469a1.6 1.6 0 01-.78-.937l-.47-3.75-2.812.156-.625 3.594c0 .468-.469.781-.781.937-.469.157-.781.313-1.25.469-.313.313-.781.156-1.094 0l-3.125-2.344L5 17.187l2.344 2.97c.156.312.312.78 0 1.25-.157.312-.469.78-.469 1.25-.156.312-.625.624-.938.624l-3.593.625v2.657l3.594.468c.312.157.625.469.937.782v.312l.469.938c.312.468.312.937 0 1.25L5 33.28l2.031 2.032L10 33.124c.313-.313.781-.313 1.094-.156.469.156.937.312 1.25.468.469.157.781.47.781.938l.625 3.594z"/><path fill-rule="evenodd" clip-rule="evenodd" d="M15 31.25c-3.281 0-6.094-2.656-6.094-6.094 0-3.437 2.813-6.093 6.094-6.093 3.438 0 6.094 2.656 6.094 6.093 0 3.438-2.657 6.094-6.094 6.094zm0-9.844c-2.031 0-3.75 1.719-3.75 3.75 0 2.188 1.719 3.907 3.75 3.907a3.868 3.868 0 003.906-3.907c0-2.031-1.718-3.75-3.906-3.75z"/></svg><svg viewBox="0 0 50 50" id="time" xmlns="http://www.w3.org/2000/svg"><path d="M25 1C11.767 1 1 11.767 1 25s10.767 24 24 24 24-10.767 24-24S38.233 1 25 1zm0 46C12.869 47 3 37.131 3 25S12.869 3 25 3s22 9.869 22 22-9.869 22-22 22z"/><path d="M26 23.277V7h-2v16.277c-.595.346-1 .984-1 1.723 0 .178.031.347.074.512l-8.781 8.781 1.414 1.414 8.781-8.781c.165.043.334.074.512.074a1.994 1.994 0 001-3.723z"/></svg><svg viewBox="0 0 80 80" id="virus" xmlns="http://www.w3.org/2000/svg"><path fill-rule="evenodd" clip-rule="evenodd" d="M72.075 67H7.925A.92.92 0 017 66.084V23.273A2.285 2.285 0 019.293 21h18.971c1.217 0 1.217 1.832 0 1.832H9.293a.449.449 0 00-.444.44v41.896H71.15V23.273a.448.448 0 00-.444-.44H51.735c-1.217 0-1.216-1.833 0-1.833h18.972A2.285 2.285 0 0173 23.273v42.81a.921.921 0 01-.925.917z"/><path fill-rule="evenodd" clip-rule="evenodd" d="M39.998 56.575c-3.248 0-4.83-4.104-2.5-6.42v-2.066a15.614 15.614 0 01-6.892-2.95L29.19 46.6c.063 3.35-3.867 5.085-6.162 2.715-2.32-2.395-.558-6.46 2.628-6.366l1.415-1.461a16.693 16.693 0 01-2.857-7.119h-2c-2.24 2.407-6.215.775-6.215-2.58 0-3.354 3.972-4.99 6.216-2.582h2a16.71 16.71 0 012.856-7.12l-1.415-1.461c-4.802.107-4.879-7.458-.075-7.458 2.026 0 3.648 1.719 3.61 3.806l1.414 1.461a15.597 15.597 0 016.893-2.95v-2.066C35.17 11.106 36.75 7 40 7s4.828 4.108 2.5 6.42v2.065a15.618 15.618 0 016.892 2.95l1.415-1.461c-.095-4.966 7.22-5.035 7.22-.078 0 2.106-1.667 3.755-3.686 3.728l-1.415 1.461a16.719 16.719 0 012.858 7.12h2c2.238-2.407 6.215-.774 6.215 2.582s-3.976 4.987-6.216 2.58h-1.999a16.701 16.701 0 01-2.858 7.12l1.415 1.46c4.783-.113 4.88 7.458.075 7.458-2.035 0-3.65-1.726-3.609-3.806l-1.415-1.463a15.62 15.62 0 01-6.892 2.952v2.065c2.33 2.314.748 6.422-2.501 6.422zm-9.473-13.688c1.017 0 2.68 2.822 8.007 3.39.478.05.84.466.84.962 0 1.528.27 3.66-.389 4.15-1.356 1.012-.67 3.25 1.014 3.25 1.687 0 2.368-2.241 1.015-3.25-.66-.49-.39-2.62-.39-4.15 0-1.93 3.28.033 8.258-4.137a.916.916 0 011.253.067c1.043 1.075 2.697 2.393 2.567 3.22-.276 1.753 1.803 2.732 2.941 1.556 1.197-1.235.134-3.317-1.508-3.038-.799.137-2.071-1.572-3.116-2.65-1.322-1.366 2.351-2.394 3.01-8.956a.95.95 0 01.931-.868c1.48 0 3.544-.278 4.018.402.977 1.4 3.146.692 3.146-1.047 0-1.737-2.164-2.452-3.146-1.048-.476.68-2.539.402-4.018.402-1.87 0 .03-3.394-4.006-8.528a.99.99 0 01.065-1.295c1.05-1.084 2.315-2.787 3.117-2.652 1.656.28 2.697-1.809 1.507-3.038-1.137-1.174-3.215-.2-2.94 1.557.129.827-1.526 2.147-2.568 3.22-1.325 1.366-2.317-2.429-8.67-3.107a.958.958 0 01-.841-.963c0-1.526-.27-3.658.389-4.15 1.355-1.01.67-3.249-1.015-3.249-1.681 0-2.372 2.236-1.014 3.25.659.491.39 2.622.39 4.15 0 1.93-3.288-.03-8.258 4.137a.916.916 0 01-1.253-.068c-1.047-1.081-2.698-2.392-2.567-3.22.395-2.503-3.45-2.81-3.45-.288 0 1.113.966 1.948 2.015 1.77.801-.134 2.069 1.57 3.118 2.652 1.323 1.365-2.35 2.393-3.008 8.955a.95.95 0 01-.932.868c-1.479 0-3.545.278-4.019-.402-.978-1.401-3.147-.692-3.147 1.048 0 1.737 2.165 2.45 3.147 1.047.476-.68 2.539-.402 4.017-.402 1.87 0-.028 3.394 4.006 8.529a.99.99 0 01-.065 1.294c-1.048 1.083-2.315 2.785-3.117 2.652-1.65-.275-2.7 1.807-1.508 3.037 1.138 1.175 3.217.197 2.942-1.556-.13-.828 1.522-2.142 2.567-3.22a.923.923 0 01.664-.284h.001z"/><path fill-rule="evenodd" clip-rule="evenodd" d="M41.22 26.522c-3.761 0-3.762-5.902 0-5.902 3.76 0 3.76 5.902 0 5.902zm0-3.965c-1.295 0-1.294 2.03 0 2.03 1.292 0 1.293-2.03 0-2.03zm-4.072 21.795c-3.761 0-3.76-5.902 0-5.902s3.761 5.902 0 5.902zm0-3.966c-1.294 0-1.295 2.03 0 2.03s1.293-2.03 0-2.03zm1.267-5.996c-3.317 0-3.317-5.205 0-5.205s3.317 5.206 0 5.206zm0-3.269c-.85 0-.851 1.335 0 1.335.85 0 .85-1.335 0-1.335zm10.744 1.181c-3.761 0-3.76-5.901 0-5.901s3.761 5.901 0 5.901zm0-3.965c-1.293 0-1.294 2.03 0 2.03 1.293 0 1.293-2.03 0-2.03zm-1.536 11.785c-3.76 0-3.76-5.903 0-5.903 3.761 0 3.76 5.903 0 5.903zm0-3.966c-1.293 0-1.293 2.03 0 2.03 1.294 0 1.294-2.03 0-2.03zm-16.786-6.233c-3.76 0-3.761-5.901 0-5.901 3.76 0 3.76 5.901 0 5.901zm0-3.966c-1.294 0-1.294 2.03 0 2.03 1.292 0 1.294-2.03 0-2.03zm.618 12.603c-3.317 0-3.318-5.206 0-5.206 3.317 0 3.317 5.206 0 5.206zm0-3.27c-.85 0-.851 1.335 0 1.335.85 0 .85-1.335 0-1.335zm43.233 40.179H5.156C2.344 75.469 0 73.125 0 70.313v-4.22C0 65.47.625 65 1.25 65h77.656c.625 0 1.094.469 1.094 1.094v4.219c-.156 2.812-2.5 5.156-5.313 5.156zM2.344 67.344v2.969a2.8 2.8 0 002.812 2.812h69.531c1.563 0 2.97-1.25 2.97-2.813v-2.968H2.343z"/><path fill-rule="evenodd" clip-rule="evenodd" d="M49.375 71.563H30.469c-1.094 0-2.032-.782-2.032-2.032v-3.437c0-.625.47-1.094 1.25-1.094h20.625c.782 0 1.25.469 1.25 1.094v3.437c0 1.25-.937 2.031-2.187 2.031zm-18.75-2.188h18.594v-2.031H30.625v2.031z"/></svg></svg>